<?xml version="1.0" encoding="UTF-8" standalone="no"?>
<svg
   xmlns:dc="http://purl.org/dc/elements/1.1/"
   xmlns:cc="http://creativecommons.org/ns#"
   xmlns:rdf="http://www.w3.org/1999/02/22-rdf-syntax-ns#"
   xmlns:svg="http://www.w3.org/2000/svg"
   xmlns="http://www.w3.org/2000/svg"
   xmlns:sodipodi="http://sodipodi.sourceforge.net/DTD/sodipodi-0.dtd"
   xmlns:inkscape="http://www.inkscape.org/namespaces/inkscape"
   width="463"
   height="200"
   viewBox="0 0 463 200"
   version="1.1"
   id="svg43"
   sodipodi:docname="openneuroscience_blue.svg"
   style="fill:none"
   inkscape:version="0.92.5 (2060ec1f9f, 2020-04-08)">
  <metadata
     id="metadata47">
    <rdf:RDF>
      <cc:Work
         rdf:about="">
        <dc:format>image/svg+xml</dc:format>
        <dc:type
           rdf:resource="http://purl.org/dc/dcmitype/StillImage" />
        <dc:title></dc:title>
      </cc:Work>
    </rdf:RDF>
  </metadata>
  <sodipodi:namedview
     pagecolor="#ffffff"
     bordercolor="#666666"
     borderopacity="1"
     objecttolerance="10"
     gridtolerance="10"
     guidetolerance="10"
     inkscape:pageopacity="0"
     inkscape:pageshadow="2"
     inkscape:window-width="1920"
     inkscape:window-height="1016"
     id="namedview45"
     showgrid="false"
     inkscape:zoom="0.80993521"
     inkscape:cx="231.5"
     inkscape:cy="26"
     inkscape:window-x="0"
     inkscape:window-y="27"
     inkscape:window-maximized="1"
     inkscape:current-layer="svg43" />
  <g
     id="g83"
     transform="translate(0,76)">
    <path
       d="m 14.73,40.4446 c -2.7867,0 -5.37445,-0.5977 -7.56405,-1.9924 C 4.97635,37.2568 3.18487,35.4637 1.99054,33.2722 0.796217,31.0806 0,28.6898 0,25.9005 0,23.1112 0.597163,20.7204 1.99054,18.5289 3.38392,16.3373 4.97635,14.7434 7.16595,13.3488 9.35555,12.1534 11.9433,11.3564 14.73,11.3564 c 2.7868,0 5.3745,0.5977 7.5641,1.9924 2.1896,1.1954 3.9811,2.9885 5.1754,5.1801 1.1943,2.1915 1.9905,4.5823 1.9905,7.3716 0,2.7893 -0.5971,5.1801 -1.9905,7.3717 -1.1943,2.1915 -2.9858,3.9846 -5.1754,5.18 -2.1896,1.3947 -4.7773,1.9924 -7.5641,1.9924 z m 0,-6.1763 c 1.5924,0 2.7868,-0.3984 3.9811,-0.9961 0.9953,-0.797 1.9905,-1.5939 2.5877,-2.9886 0.5972,-1.1954 0.7962,-2.59 0.7962,-3.9846 0,-1.5939 -0.199,-2.7893 -0.7962,-3.9847 -0.5972,-1.1954 -1.5924,-2.3908 -2.5877,-3.1877 -1.1943,-0.797 -2.3887,-0.9962 -3.9811,-0.9962 -1.5924,0 -2.7867,0.3985 -3.9811,0.9962 -0.99525,0.7969 -1.99052,1.5938 -2.58768,2.9885 -0.59716,1.1954 -0.79622,2.59 -0.79622,3.9846 0,1.5939 0.19906,2.7893 0.79622,3.9847 0.59716,1.1954 1.39338,2.1916 2.58768,2.9885 1.1944,0.797 2.5877,1.1954 3.9811,1.1954 z"
       id="path2"
       inkscape:connector-curvature="0"
       style="fill:#2e68fb" />
    <path
       d="m 55.138,12.9503 c 1.7915,0.7969 3.3839,1.7931 4.5782,2.9885 1.1944,1.3946 2.1896,2.9885 2.7868,4.7816 0.5972,1.7931 0.9953,3.7854 0.9953,5.977 0,2.7893 -0.5972,5.1801 -1.5925,7.1724 -0.9952,1.9923 -2.5877,3.5862 -4.5782,4.7816 -1.9906,1.1954 -4.3792,1.7931 -6.9669,1.7931 -1.1943,0 -2.1896,-0.1992 -3.3839,-0.3985 -0.9953,-0.3984 -1.9906,-0.7969 -2.7868,-1.3946 -0.7962,-0.5977 -1.5924,-1.3946 -2.1896,-2.1916 v 15.1418 h -7.365 V 26.6974 c 0,-2.9885 0.5972,-5.5786 1.7915,-7.7701 1.1943,-2.1916 2.7868,-3.9847 4.9763,-5.1801 2.1896,-1.1954 4.7773,-1.7931 7.5641,-1.7931 2.3887,-0.1992 4.3792,0.1992 6.1707,0.9962 z m -9.7537,6.1762 c -0.9952,0.7969 -1.7915,1.5939 -2.3886,2.9885 -0.5972,1.1954 -0.7962,2.5901 -0.7962,3.9847 0,1.5939 0.199,2.7893 0.7962,3.9847 0.5971,1.1954 1.3934,2.1915 2.3886,2.9885 0.9953,0.7969 2.3887,0.9961 3.7821,0.9961 1.3933,0 2.7867,-0.3984 3.782,-0.9961 0.9953,-0.797 1.7915,-1.5939 2.3886,-2.9885 0.5972,-1.1954 0.7963,-2.5901 0.7963,-3.9847 0,-1.5939 -0.1991,-2.7893 -0.7963,-3.9847 -0.5971,-1.1954 -1.3933,-2.1916 -2.3886,-2.9885 -0.9953,-0.7969 -2.3887,-0.9962 -3.782,-0.9962 -1.5925,0 -2.7868,0.3985 -3.7821,0.9962 z"
       id="path4"
       inkscape:connector-curvature="0"
       style="fill:#2e68fb" />
    <path
       d="m 82.6075,39.8466 c -3.1849,0 -5.7726,-0.5977 -8.1612,-1.7931 -2.3887,-1.1954 -4.1802,-2.7893 -5.3745,-4.9809 -1.1943,-1.9923 -1.9905,-4.3831 -1.9905,-6.9731 0,-2.9885 0.5971,-5.3793 1.7914,-7.5709 1.1944,-2.1916 2.7868,-3.7855 4.7773,-4.9809 1.9906,-1.1954 4.3792,-1.7931 6.9669,-1.7931 2.9858,0 5.5735,0.5977 7.5641,1.9924 1.9905,1.1954 3.3839,2.9885 4.1801,5.1801 0.7962,2.1915 1.3934,4.5823 1.3934,7.1724 0,0.3984 0,0.7969 0,1.1954 0,0.3984 0,0.7969 -0.1991,1.1954 h -18.512 c 0.1991,1.1954 0.7962,1.9923 1.3934,2.7892 0.7962,0.797 1.5924,1.3947 2.5877,1.5939 0.9953,0.3985 2.1896,0.5977 3.583,0.5977 h 7.564 v 6.3755 z M 75.0434,23.5094 h 11.3461 c 0,-0.5977 -0.1991,-1.3946 -0.3981,-1.9923 -0.1991,-0.5977 -0.3981,-1.1954 -0.7962,-1.5939 -0.3981,-0.3984 -0.7962,-0.7969 -1.1943,-1.1954 -0.3982,-0.3984 -0.9953,-0.5977 -1.5925,-0.7969 -0.199,0 -0.7962,0 -1.5924,0 -0.9953,0 -1.5924,0.1992 -2.3887,0.3985 -0.7962,0.3984 -1.1943,0.7969 -1.7915,1.1954 -0.3981,0.5977 -0.7962,1.1954 -1.1943,1.7931 -0.199,0.7969 -0.199,1.5938 -0.3981,2.1915 z"
       id="path6"
       inkscape:connector-curvature="0"
       style="fill:#2e68fb" />
    <path
       d="m 142.324,35.2646 c 1.99,0 3.583,1.5939 3.583,3.5863 v 1.1954 c 0,2.1915 -0.597,4.1839 -1.593,5.977 -0.995,1.7931 -2.587,3.1877 -4.379,4.3831 -1.99,0.9962 -4.18,1.5939 -6.967,1.5939 -2.787,0 -4.976,-0.5977 -6.967,-1.5939 -1.99,-0.9962 -3.384,-2.59 -4.379,-4.3831 -0.995,-1.7931 -1.592,-3.7855 -1.592,-5.977 v -1.1954 c 0,-1.9924 1.592,-3.5863 3.583,-3.5863 1.99,0 3.583,1.5939 3.583,3.5863 v 1.1954 c 0,0.9961 0.199,1.9923 0.796,2.9885 0.597,0.7969 1.194,1.5938 2.189,2.1915 0.797,0.5977 1.792,0.797 2.986,0.797 0.996,0 1.991,-0.1993 2.986,-0.797 0.796,-0.5977 1.592,-1.1954 2.19,-2.1915 0.597,-0.797 0.796,-1.7931 0.796,-2.9885 v -1.1954 c -0.398,-1.9924 1.194,-3.5863 3.185,-3.5863 z"
       id="path8"
       inkscape:connector-curvature="0"
       style="fill:#2e68fb" />
    <path
       d="m 104.902,38.4522 c -1.991,0 -3.583,-1.5938 -3.583,-3.5862 V 23.3105 c 0,-2.1916 0.597,-4.1839 1.592,-5.977 0.995,-1.7931 2.588,-3.1878 4.379,-4.3832 1.991,-0.9962 4.18,-1.5939 6.967,-1.5939 2.787,0 4.976,0.5977 6.967,1.5939 1.991,0.9962 3.384,2.5901 4.379,4.3832 0.995,1.7931 1.593,3.7854 1.593,5.977 v 1.1954 c 0,1.9923 -1.593,3.5862 -3.583,3.5862 -1.991,0 -3.583,-1.5939 -3.583,-3.5862 v -1.1954 c 0,-0.9962 -0.199,-1.9924 -0.797,-2.9885 -0.597,-0.797 -1.194,-1.5939 -2.189,-2.1916 -0.796,-0.5977 -1.792,-0.7969 -2.986,-0.7969 -0.995,0 -1.991,0.1992 -2.986,0.7969 -0.796,0.5977 -1.592,1.1954 -2.189,2.1916 -0.598,0.7969 -0.797,1.7931 -0.797,2.9885 V 34.866 c 0.399,1.9924 -1.194,3.5862 -3.184,3.5862 z"
       id="path10"
       inkscape:connector-curvature="0"
       style="fill:#2e68fb" />
    <path
       d="m 142.324,28.2913 c -1.991,0 -3.583,-1.5939 -3.583,-3.5862 v -1.1954 c 0,-2.1916 0.597,-4.1839 1.592,-5.977 0.995,-1.7931 2.588,-3.1878 4.379,-4.3832 1.991,-0.9961 4.18,-1.5938 6.967,-1.5938 2.787,0 4.977,0.5977 6.967,1.5938 1.991,0.9962 3.384,2.5901 4.379,4.3832 0.996,1.7931 1.593,3.7854 1.593,5.977 v 11.5555 c 0,1.9924 -1.593,3.5862 -3.583,3.5862 -1.991,0 -3.583,-1.5938 -3.583,-3.5862 V 23.5097 c 0,-0.9962 -0.199,-1.9924 -0.796,-2.9885 -0.598,-0.797 -1.195,-1.5939 -2.19,-2.1916 -0.796,-0.5977 -1.791,-0.7969 -2.986,-0.7969 -0.995,0 -1.99,0.1992 -2.986,0.7969 -0.796,0.5977 -1.592,1.1954 -2.189,2.1916 -0.597,0.7969 -0.796,1.7931 -0.796,2.9885 v 1.1954 c 0.398,1.9923 -1.195,3.5862 -3.185,3.5862 z"
       id="path12"
       inkscape:connector-curvature="0"
       style="fill:#2e68fb" />
    <path
       d="m 185.319,39.8466 c -3.184,0 -5.772,-0.5977 -8.161,-1.7931 -2.388,-1.1954 -4.18,-2.7893 -5.374,-4.9809 -1.195,-1.9923 -1.991,-4.3831 -1.991,-6.9731 0,-2.9885 0.597,-5.3793 1.792,-7.5709 1.194,-2.1916 2.786,-3.7855 4.777,-4.9809 1.991,-1.1954 4.379,-1.7931 6.967,-1.7931 2.986,0 5.573,0.5977 7.564,1.9924 1.99,1.1954 3.384,2.9885 4.18,5.1801 0.796,2.1915 1.393,4.5823 1.393,7.1724 0,0.3984 0,0.7969 0,1.1954 0,0.3984 0,0.7969 -0.199,1.1954 h -18.512 c 0.199,1.1954 0.797,1.9923 1.394,2.7892 0.796,0.797 1.592,1.3947 2.587,1.5939 0.996,0.3985 2.19,0.5977 3.583,0.5977 h 7.764 v 6.3755 z m -7.564,-16.1379 h 11.346 c 0,-0.5977 -0.199,-1.3947 -0.398,-1.9924 -0.199,-0.5977 -0.398,-1.1954 -0.796,-1.5938 -0.398,-0.3985 -0.796,-0.797 -1.194,-1.1954 -0.398,-0.3985 -0.995,-0.5977 -1.593,-0.797 -0.199,0 -0.995,-0.1992 -1.592,-0.1992 -0.995,0 -1.592,0.1992 -2.389,0.3985 -0.796,0.3984 -1.194,0.7969 -1.791,1.1954 -0.398,0.5977 -0.796,1.1954 -1.195,1.7931 -0.199,0.9961 -0.398,1.5938 -0.398,2.3908 z"
       id="path14"
       inkscape:connector-curvature="0"
       style="fill:#2e68fb" />
    <path
       d="m 215.178,40.6435 c -2.787,0 -5.176,-0.5977 -7.166,-1.5939 -1.991,-1.1954 -3.583,-2.59 -4.579,-4.3831 -0.995,-1.7931 -1.592,-3.9847 -1.592,-6.1763 V 12.5515 h 7.365 V 28.291 c 0,1.1954 0.199,2.1915 0.796,2.9885 0.597,0.9962 1.194,1.5939 2.19,2.1916 0.995,0.5977 1.99,0.7969 2.986,0.7969 1.194,0 2.189,-0.1992 2.985,-0.7969 0.996,-0.5977 1.593,-1.1954 2.19,-2.1916 0.597,-0.9962 0.796,-1.9924 0.796,-2.9885 V 12.5515 h 7.365 V 28.291 c 0,2.1915 -0.597,4.3831 -1.592,6.1762 -0.996,1.7931 -2.588,3.387 -4.579,4.3832 -1.99,1.1954 -4.379,1.7931 -7.165,1.7931 z"
       id="path16"
       inkscape:connector-curvature="0"
       style="fill:#2e68fb" />
    <path
       d="M 235.083,39.8465 V 20.3216 c 0,-2.3908 0.597,-4.3831 1.991,-5.7777 1.393,-1.3947 3.184,-1.9924 5.772,-1.9924 h 7.564 v 6.3755 h -6.37 c -0.398,0 -0.796,0.1992 -1.194,0.3985 -0.398,0.3984 -0.597,0.7969 -0.597,1.1954 v 19.3256 z"
       id="path18"
       inkscape:connector-curvature="0"
       style="fill:#2e68fb" />
    <path
       d="m 267.728,40.6435 c -2.787,0 -5.375,-0.5977 -7.564,-1.9923 -2.19,-1.1954 -3.981,-2.9885 -5.176,-5.1801 -1.194,-2.1915 -1.99,-4.5823 -1.99,-7.3716 0,-2.7893 0.597,-5.1801 1.99,-7.3717 1.195,-2.1915 2.986,-3.7854 5.176,-5.18 2.189,-1.1954 4.777,-1.9924 7.564,-1.9924 2.787,0 5.374,0.5977 7.564,1.9924 2.19,1.1954 3.981,2.9885 5.175,5.18 1.195,2.1916 1.991,4.5824 1.991,7.3717 0,2.7893 -0.597,5.1801 -1.991,7.3716 -1.393,2.1916 -2.985,3.9847 -5.175,5.1801 -2.19,1.1954 -4.777,1.9923 -7.564,1.9923 z m 0,-6.3754 c 1.592,0 2.787,-0.3985 3.981,-0.9962 0.995,-0.7969 1.99,-1.5939 2.588,-2.9885 0.597,-1.1954 0.796,-2.59 0.796,-3.9847 0,-1.5939 -0.199,-2.7893 -0.796,-3.9847 -0.598,-1.1954 -1.394,-2.1915 -2.588,-2.9885 -1.194,-0.7969 -2.389,-0.9961 -3.981,-0.9961 -1.593,0 -2.787,0.3984 -3.981,0.9961 -0.996,0.797 -1.991,1.5939 -2.588,2.9885 -0.597,1.1954 -0.796,2.5901 -0.796,3.9847 0,1.5939 0.199,2.7893 0.796,3.9847 0.597,1.1954 1.393,2.1916 2.588,2.9885 1.194,0.5977 2.388,0.9962 3.981,0.9962 z"
       id="path20"
       inkscape:connector-curvature="0"
       style="fill:#2e68fb" />
    <path
       d="m 288.031,39.8468 v -6.3755 h 13.337 c 0.398,0 0.796,0 1.194,-0.1992 0.398,-0.1993 0.597,-0.3985 0.797,-0.797 0.199,-0.3985 0.199,-0.5977 0.199,-0.9962 0,-0.3984 -0.199,-0.7969 -0.199,-1.1954 -0.2,-0.3984 -0.399,-0.5977 -0.797,-0.7969 -0.398,-0.1992 -0.796,-0.1992 -1.194,-0.1992 h -5.175 c -1.792,0 -3.384,-0.1993 -4.778,-0.797 -1.393,-0.5977 -2.587,-1.3946 -3.384,-2.59 -0.796,-1.1954 -1.194,-2.7893 -1.194,-4.7816 0,-1.5939 0.398,-2.9885 1.194,-4.1839 0.797,-1.1954 1.792,-2.1916 3.185,-2.9885 1.394,-0.797 2.787,-1.1954 4.379,-1.1954 h 12.74 v 6.3755 h -12.142 c -0.598,0 -0.996,0.1992 -1.394,0.5977 -0.398,0.3984 -0.597,0.7969 -0.597,1.3946 0,0.5977 0.199,0.9962 0.597,1.3946 0.398,0.3985 0.796,0.5977 1.394,0.5977 h 5.175 c 1.991,0 3.583,0.3985 5.175,0.797 1.394,0.5977 2.588,1.5938 3.384,2.7892 0.797,1.1954 1.195,2.9885 1.195,4.9809 0,1.5939 -0.398,2.9885 -1.195,4.3831 -0.796,1.3947 -1.791,2.3908 -3.185,3.1878 -1.393,0.7969 -2.786,1.1954 -4.379,1.1954 h -14.332 z"
       id="path22"
       inkscape:connector-curvature="0"
       style="fill:#2e68fb" />
    <path
       d="m 329.634,39.847 c -2.787,0 -5.375,-0.5977 -7.564,-1.7931 -2.19,-1.1954 -3.981,-2.7892 -5.176,-4.9808 -1.194,-2.1916 -1.99,-4.3831 -1.99,-6.9732 0,-2.59 0.597,-4.9808 1.99,-6.9732 1.195,-1.9923 2.986,-3.7854 5.176,-4.9808 2.189,-1.1954 4.777,-1.7931 7.564,-1.7931 h 3.384 v 6.3755 h -3.384 c -1.593,0 -2.787,0.3984 -3.981,0.9961 -1.195,0.5977 -1.991,1.5939 -2.588,2.5901 -0.597,1.1954 -0.796,2.3908 -0.796,3.7854 0,1.3946 0.199,2.59 0.796,3.7855 0.597,1.1954 1.393,1.9923 2.588,2.59 0.995,0.5977 2.388,0.9962 3.981,0.9962 h 3.384 v 6.3754 z"
       id="path24"
       inkscape:connector-curvature="0"
       style="fill:#2e68fb" />
    <path
       d="m 341.975,9.16475 c -1.194,0 -2.389,-0.39847 -3.185,-1.39464 -0.995,-0.99616 -1.393,-1.99233 -1.393,-3.18774 0,-1.1954 0.398,-2.3908 1.393,-3.18773 C 339.785,0.398467 340.781,0 341.975,0 c 1.194,0 2.389,0.398467 3.185,1.39464 0.995,0.99616 1.393,1.99233 1.393,3.18773 0,1.19541 -0.398,2.39081 -1.393,3.18774 -0.796,0.99617 -1.991,1.39464 -3.185,1.39464 z m -3.782,30.68195 v -27.295 h 7.365 v 27.295 z"
       id="path26"
       inkscape:connector-curvature="0"
       style="fill:#2e68fb" />
    <path
       d="m 366.26,39.8466 c -3.185,0 -5.773,-0.5977 -8.162,-1.7931 -2.388,-1.1954 -4.18,-2.7893 -5.374,-4.9809 -1.194,-1.9923 -1.991,-4.3831 -1.991,-6.9731 0,-2.9885 0.598,-5.3793 1.792,-7.5709 1.194,-2.1916 2.787,-3.7855 4.777,-4.9809 1.991,-1.1954 4.379,-1.7931 6.967,-1.7931 2.986,0 5.574,0.5977 7.564,1.9924 1.991,1.1954 3.384,2.9885 4.18,5.1801 0.797,2.1915 1.394,4.5823 1.394,7.1724 0,0.3984 0,0.7969 0,1.1954 0,0.3984 0,0.7969 -0.199,1.1954 h -18.512 c 0.199,1.1954 0.796,1.9923 1.393,2.7892 0.796,0.797 1.592,1.3947 2.588,1.5939 0.995,0.3985 2.189,0.5977 3.583,0.5977 h 7.564 v 6.3755 z m -7.564,-16.1379 h 11.346 c 0,-0.5977 -0.199,-1.3947 -0.398,-1.9924 -0.199,-0.5977 -0.399,-1.1954 -0.797,-1.5938 -0.398,-0.3985 -0.796,-0.797 -1.194,-1.1954 -0.398,-0.3985 -0.995,-0.5977 -1.592,-0.797 -0.598,-0.1992 -1.195,-0.1992 -1.792,-0.1992 -0.995,0 -1.592,0.1992 -2.389,0.3985 -0.796,0.3984 -1.194,0.7969 -1.791,1.1954 -0.398,0.5977 -0.796,1.1954 -1.194,1.7931 0.199,0.9961 0,1.5938 -0.199,2.3908 z"
       id="path28"
       inkscape:connector-curvature="0"
       style="fill:#2e68fb" />
    <path
       d="M 382.781,39.8468 V 24.1074 c 0,-2.1916 0.597,-4.3832 1.593,-6.1763 0.995,-1.7931 2.587,-3.387 4.578,-4.3831 1.99,-1.1954 4.379,-1.5939 7.166,-1.5939 2.787,0 5.175,0.5977 7.166,1.5939 1.99,1.1954 3.583,2.59 4.578,4.3831 0.995,1.7931 1.592,3.9847 1.592,6.1763 v 15.7394 h -7.365 V 24.1074 c 0,-1.1954 -0.199,-2.1916 -0.796,-2.9885 -0.597,-0.9962 -1.194,-1.5939 -2.189,-2.1916 -0.996,-0.5977 -1.991,-0.797 -2.986,-0.797 -1.195,0 -2.19,0.1993 -2.986,0.797 -0.995,0.5977 -1.592,1.1954 -2.19,2.1916 -0.597,0.9961 -0.796,1.9923 -0.796,2.9885 v 15.7394 z"
       id="path30"
       inkscape:connector-curvature="0"
       style="fill:#2e68fb" />
    <path
       d="m 429.559,39.847 c -2.787,0 -5.375,-0.5977 -7.564,-1.7931 -2.19,-1.1954 -3.981,-2.7892 -5.176,-4.9808 -1.194,-2.1916 -1.99,-4.3831 -1.99,-6.9732 0,-2.59 0.597,-4.9808 1.99,-6.9732 1.195,-1.9923 2.986,-3.7854 5.176,-4.9808 2.189,-1.1954 4.777,-1.7931 7.564,-1.7931 h 3.384 v 6.3755 h -3.384 c -1.593,0 -2.787,0.3984 -3.981,0.9961 -0.995,0.5977 -1.991,1.5939 -2.588,2.5901 -0.597,1.1954 -0.796,2.3908 -0.796,3.7854 0,1.3946 0.199,2.59 0.796,3.7855 0.597,1.1954 1.393,1.9923 2.588,2.59 0.995,0.5977 2.388,0.9962 3.981,0.9962 h 3.384 v 6.3754 z"
       id="path32"
       inkscape:connector-curvature="0"
       style="fill:#2e68fb" />
    <path
       d="m 451.853,39.8466 c -3.185,0 -5.773,-0.5977 -8.161,-1.7931 -2.389,-1.1954 -4.18,-2.7893 -5.375,-4.9809 -1.194,-1.9923 -1.99,-4.3831 -1.99,-6.9731 0,-2.9885 0.597,-5.3793 1.791,-7.5709 1.195,-2.1916 2.787,-3.7855 4.778,-4.9809 1.99,-1.1954 4.379,-1.7931 6.966,-1.7931 2.986,0 5.574,0.5977 7.564,1.9924 1.991,1.1954 3.384,2.9885 4.181,5.1801 0.796,2.1915 1.393,4.5823 1.393,7.1724 0,0.3984 0,0.7969 0,1.1954 0,0.3984 0,0.7969 -0.199,1.1954 h -18.512 c 0.199,1.1954 0.796,1.9923 1.393,2.7892 0.796,0.797 1.593,1.3947 2.588,1.5939 0.995,0.3985 2.19,0.5977 3.583,0.5977 h 7.564 v 6.3755 z m -7.564,-16.1379 h 11.346 c 0,-0.5977 -0.199,-1.3947 -0.398,-1.9924 -0.199,-0.5977 -0.398,-1.1954 -0.796,-1.5938 -0.398,-0.3985 -0.797,-0.797 -1.195,-1.1954 -0.398,-0.3985 -0.995,-0.5977 -1.592,-0.797 -0.597,-0.1992 -1.194,-0.1992 -1.792,-0.1992 -0.995,0 -1.592,0.1992 -2.388,0.3985 -0.796,0.3984 -1.195,0.7969 -1.792,1.1954 -0.398,0.5977 -0.796,1.1954 -1.194,1.7931 0,0.9961 0,1.5938 -0.199,2.3908 z"
       id="path34"
       inkscape:connector-curvature="0"
       style="fill:#2e68fb" />
  </g>
  <defs
     id="defs41">
    <clipPath
       id="clip0">
      <rect
         width="463"
         height="52"
         id="rect38"
         x="0"
         y="0"
         style="fill:#ffffff" />
    </clipPath>
  </defs>
</svg>
