<svg height="496pt" viewBox="0 0 496 496.104" width="496pt" xmlns="http://www.w3.org/2000/svg"><path d="m402.269531 88.65625-61.769531-88.449219-184.328125-.207031-61.960937 88.304688 153.816406 188.429687zm-108.976562 7.496094-45.226563 141.566406-44.894531-141.664062zm-85.679688-16.097656 40.695313-58 40.574218 58.097656zm102.460938 16.121093 65.273437.070313-106.960937 130.425781zm5.984375-15.992187 22.175781-55.261719 38.640625 55.335937zm-13.726563-8.734375-38.640625-55.328125 60.816406.070312zm-108.144531-.113281-22.054688-55.320313 60.824219.074219zm-13.757812 8.6875-60.816407-.070313 38.757813-55.25zm5.949218 16.007812 41.386719 130.585938-106.648437-130.65625zm0 0"/><path d="m478.644531 224.105469-96.503906 35.09375 5.65625 18.089843-37.632813 18.816407h-56.34375c-8.519531 0-16.832031 2.023437-24.433593 5.71875l-27.191407-13.601563-110.992187-7.398437 6.929687-22.167969-119.890624-34.242188-18.1914068-.308593v176h93.8828128l3.863281-12.363281 29.703125 23.769531-2.648438 3.527343c-3.09375 4.128907-4.800781 9.242188-4.800781 14.402344v2.664063c0 13.230469 10.769531 24 24 24 3.097657 0 6.082031-.746094 8.890625-1.875 2.726563 10.257812 12.007813 17.875 23.109375 17.875 3.097657 0 6.082031-.746094 8.890625-1.875 2.726563 10.257812 12.007813 17.875 23.109375 17.875 6.707031 0 13.023438-2.96875 17.519531-7.839844 3.363282 9.207031 12.121094 15.839844 22.480469 15.839844h1.378907c6.40625 0 12.4375-2.496094 16.964843-7.035157l5.921875-5.917968c4.261719 3.136718 9.441406 4.953125 14.769532 4.953125 11.15625 0 20.519531-7.410157 23.710937-17.53125 2.65625.945312 5.4375 1.53125 8.289063 1.53125 13.460937 0 24.40625-10.738281 24.878906-24.089844 13.351562-.472656 24.085937-11.414063 24.085937-24.878906 0-3.59375-.808593-7.046875-2.238281-10.226563l20.175781-5.046875 35.96875-21.230469 4.214844 13.472657h69.878906v-176zm-462.59375 160v-143.679688l101.921875 29.117188-35.800781 114.5625zm128 56c-4.414062 0-8-3.59375-8-8v-2.664063c0-1.714844.570313-3.417968 1.601563-4.800781l16.007812-21.335937c1.496094-2.007813 3.886719-3.199219 6.390625-3.199219 4.417969 0 8 3.589843 8 8v2.664062c0 1.710938-.566406 3.414063-1.597656 4.796875l-16.007813 21.335938c-1.496093 2.007812-3.890624 3.203125-6.394531 3.203125zm32 16c-4.414062 0-8-3.59375-8-8v-2.664063c0-1.714844.570313-3.417968 1.601563-4.800781l16.007812-21.335937c1.496094-2.007813 3.886719-3.199219 6.390625-3.199219 4.417969 0 8 3.589843 8 8v2.664062c0 1.710938-.566406 3.414063-1.597656 4.796875l-16.007813 21.335938c-1.496093 2.007812-3.890624 3.203125-6.394531 3.203125zm38.394531 12.804687c-1.496093 2-3.890624 3.195313-6.394531 3.195313-4.414062 0-8-3.59375-8-8v-2.664063c0-1.714844.570313-3.417968 1.601563-4.800781l16.007812-21.335937c1.496094-2.007813 3.886719-3.199219 6.390625-3.199219 4.417969 0 8 3.589843 8 8v2.664062c0 1.710938-.566406 3.414063-1.597656 4.796875zm49.605469-3.4375c0 2.136719-.832031 4.152344-2.34375 5.664063l-6.621093 6.625c-1.496094 1.484375-3.554688 2.34375-5.65625 2.34375h-1.378907c-4.414062 0-8-3.59375-8-8v-1.371094c0-2.132813.832031-4.148437 2.34375-5.664063l6.625-6.621093c1.496094-1.488281 3.550781-2.34375 5.65625-2.34375h1.375c4.417969 0 8 3.589843 8 8zm79.035157-33.367187c-2.363282 0-4.675782-.960938-6.347657-2.625l-43.03125-43.03125-11.3125 11.3125 8 8 35.035157 35.03125c1.695312 1.695312 2.621093 3.941406 2.621093 6.34375 0 4.941406-4.023437 8.96875-8.964843 8.96875-2.363282 0-4.675782-.960938-6.347657-2.625l-43.03125-43.03125-11.3125 11.3125 35.035157 35.03125c1.695312 1.695312 2.621093 3.941406 2.621093 6.34375 0 4.941406-4.023437 8.96875-8.964843 8.96875-2.363282 0-4.675782-.960938-6.347657-2.625l-.980469-.984375c.125-1 .292969-1.992188.292969-3.023438v-1.367187c0-13.234375-10.765625-24-24-24h-1.375c-2.289062 0-4.488281.421875-6.625 1.039062v-1.039062c0-13.234375-10.765625-24-24-24-3.09375 0-6.078125.742187-8.886719 1.871093-2.726562-10.257812-12.007812-17.871093-23.113281-17.871093-3.09375 0-6.078125.742187-8.886719 1.871093-2.726562-10.257812-12.007812-17.871093-23.113281-17.871093-7.519531 0-14.695312 3.589843-19.191406 9.597656l-3.75 5-34.195313-27.351563 23.378907-74.816406 111.613281 7.441406 15.136719 7.566407-32.390625 20.25c-7.886719 4.933593-12.601563 13.421875-12.601563 22.726562v2.792969c0 14.777344 12.023438 26.792969 26.800781 26.792969 4.847657 0 9.617188-1.320313 13.785157-3.824219l30.03125-18.015625c5.839843-3.503906 13.71875-2.523437 18.511719 2.277344l52.25 52.25c1.695312 1.695312 2.621093 3.941406 2.621093 6.34375 0 4.941406-4.023437 8.96875-8.964843 8.96875zm37.871093-39.472657-26.457031 6.613282-46.015625-46.015625c-9.871094-9.871094-26.046875-11.886719-38.054687-4.6875l-30.042969 18.023437c-1.671875 1.007813-3.582031 1.539063-5.535157 1.539063-5.960937 0-10.800781-4.839844-10.800781-10.792969v-2.792969c0-3.742187 1.898438-7.167969 5.082031-9.152343l43.496094-27.183594c6.359375-3.976563 13.6875-6.078125 21.191406-6.078125h60.128907l38.679687-19.34375 24.4375 78.207031zm99.09375-8.527343h-42.117187l-35.96875-115.097657 78.085937-28.390624zm0 0"/></svg>