<?xml version="1.0" encoding="UTF-8" standalone="no"?>
<svg
   xmlns:dc="http://purl.org/dc/elements/1.1/"
   xmlns:cc="http://creativecommons.org/ns#"
   xmlns:rdf="http://www.w3.org/1999/02/22-rdf-syntax-ns#"
   xmlns:svg="http://www.w3.org/2000/svg"
   xmlns="http://www.w3.org/2000/svg"
   xmlns:sodipodi="http://sodipodi.sourceforge.net/DTD/sodipodi-0.dtd"
   xmlns:inkscape="http://www.inkscape.org/namespaces/inkscape"
   version="1.1"
   id="Layer_1"
   x="0px"
   y="0px"
   viewBox="0 0 504.26999 60.369999"
   xml:space="preserve"
   sodipodi:docname="icons.svg"
   inkscape:version="1.0.1 (3bc2e813f5, 2020-09-07, custom)"
   width="504.26999"
   height="60.369999"><metadata
   id="metadata523"><rdf:RDF><cc:Work
       rdf:about=""><dc:format>image/svg+xml</dc:format><dc:type
         rdf:resource="http://purl.org/dc/dcmitype/StillImage" /><dc:title></dc:title></cc:Work></rdf:RDF></metadata><defs
   id="defs521">
	
	
	
	
	
	
	
	
	
	

		
	
		
		
	
			
		
			
		
	
	

		
		
		
		
		
		
		
		
	
			
		
	
	
	
	
	
	
	
	

	
	
	
	
	
	
	
	
	
	
	

		
		
		
	
			
			
		
			
		
			
			
			
		
				
			</defs><sodipodi:namedview
   pagecolor="#ffffff"
   bordercolor="#666666"
   borderopacity="1"
   objecttolerance="10"
   gridtolerance="10"
   guidetolerance="10"
   inkscape:pageopacity="0"
   inkscape:pageshadow="2"
   inkscape:window-width="1920"
   inkscape:window-height="1051"
   id="namedview519"
   showgrid="false"
   inkscape:zoom="1.28"
   inkscape:cx="40.521083"
   inkscape:cy="94.033819"
   inkscape:window-x="0"
   inkscape:window-y="0"
   inkscape:window-maximized="1"
   inkscape:current-layer="Layer_1"
   fit-margin-top="0"
   fit-margin-left="0"
   fit-margin-right="0"
   fit-margin-bottom="0" />
<style
   type="text/css"
   id="style2">
	.st0{fill:#FFFFFF;}
	.st1{fill:#E8AD35;}
	.st2{fill:#010101;stroke:#F9F9FA;stroke-width:4;stroke-miterlimit:10;}
	.st3{fill:none;}
	.st4{font-family:'MyriadPro-Regular';}
	.st5{font-size:18px;}
	.st6{fill:none;stroke:#000000;stroke-width:0.5;stroke-miterlimit:10;}
	.st7{fill:#AA7C2C;}
	.st8{fill:#E8AD36;}
	.st9{fill:#010101;}
	.st10{font-family:'Roboto-Regular';}
	.st11{font-size:14px;}
	.st12{opacity:0.6;fill:#E8C178;}
	.st13{fill:none;stroke:#E8AD36;stroke-width:4;stroke-miterlimit:10;}
	.st14{fill:none;stroke:#E8AD36;stroke-width:3;stroke-linecap:round;stroke-miterlimit:10;}
	.st15{fill:none;stroke:#E8AD36;stroke-width:4;stroke-linecap:round;stroke-miterlimit:10;}
	.st16{opacity:0.4;fill:#E8AD36;}
	.st17{opacity:0.9;fill:#E8AD36;}
	.st18{opacity:0.72;}
	.st19{opacity:0.7;}
	.st20{fill:#E8C178;}
	.st21{opacity:0.6;fill:#E8AD36;}
	.st22{fill:none;stroke:#E8AD36;stroke-width:3;stroke-miterlimit:10;}
	.st23{fill:#F0CF97;}
	.st24{font-size:12px;}
	.st25{fill:none;stroke:#000000;stroke-miterlimit:10;}
	.st26{opacity:0.8;}
</style>










<rect
   style="fill:#000000;fill-opacity:1;stroke:#000000;stroke-width:1.19055;stroke-linecap:round"
   id="rect1393"
   width="865.65814"
   height="299.54971"
   x="-268.92657"
   y="-72.274658" /><path
   class="st12"
   d="M 45.58,26.65 C 44.99,25.92 43.92,25.8 43.19,26.39 L 28.88,37.85 28.75,29.97 31.87,19.72 42.06,12.49 40.09,9.72 28.95,17.62 27.03,23.91 22.25,13.02 11.32,7.21 l -1.6,3 9.89,5.26 5.71,12.99 0.04,2.58 -9.34,-6.16 c -0.78,-0.52 -1.84,-0.3 -2.36,0.48 -0.52,0.78 -0.3,1.84 0.48,2.36 l 11.28,7.43 0.38,23.55 c 0.01,0.93 0.77,1.67 1.7,1.67 0.01,0 0.02,0 0.03,0 0.94,-0.01 1.69,-0.79 1.67,-1.73 L 28.94,42.1 c 0.1,-0.05 0.2,-0.11 0.29,-0.18 L 45.31,29.04 c 0.73,-0.59 0.85,-1.66 0.27,-2.39 z"
   id="path136"
   style="fill:#ffffff;fill-opacity:1" /><path
   class="st13"
   d="m 27.4,53.02 c 0,0 1.88,-9.39 9.01,-12.77 7.13,-3.38 12.77,0 12.77,0 0,0 -1.13,5.63 -7.13,9.58 -6.01,3.94 -14.65,3.19 -14.65,3.19 z"
   id="path138"
   style="stroke:#ffffff;stroke-opacity:1" /><path
   class="st13"
   d="m 27.4,53.02 c 0,0 -1.88,-9.39 -9.01,-12.77 -7.13,-3.38 -12.77,0 -12.77,0 0,0 1.13,5.63 7.13,9.58 6.02,3.94 14.65,3.19 14.65,3.19 z"
   id="path140"
   style="stroke:#ffffff;stroke-opacity:1" /><line
   class="st14"
   x1="28.76"
   y1="52.199982"
   x2="37.829998"
   y2="45.920013"
   id="line142"
   style="stroke:#ffffff;stroke-opacity:1" /><line
   class="st14"
   x1="26.039999"
   y1="52.199982"
   x2="16.51"
   y2="45.439972"
   id="line144"
   style="stroke:#ffffff;stroke-opacity:1" /><circle
   class="st15"
   cx="44.509998"
   cy="9.6499929"
   r="3.72"
   id="circle146"
   style="stroke:#ffffff;stroke-opacity:1" /><circle
   class="st15"
   cx="46.279995"
   cy="24.589994"
   r="3.72"
   id="circle148"
   style="stroke:#ffffff;stroke-opacity:1" /><path
   class="st8"
   d="M 13.93,26.33 C 12.09,26.33 8.42,26.07 5.58,24.2 1.65,21.62 0.87,17.95 0.84,17.79 l -0.12,-0.58 0.5,-0.3 c 0.16,-0.09 3.89,-2.28 8.62,-0.04 4.7,2.23 5.94,8.17 5.99,8.42 l 0.18,0.91 -0.93,0.08 c -0.05,0.02 -0.48,0.05 -1.15,0.05 z M 2.66,18.07 c 0.37,1.02 1.39,3.13 3.83,4.73 2.47,1.62 5.79,1.85 7.44,1.85 -0.52,-1.63 -1.89,-4.9 -4.8,-6.28 -2.94,-1.38 -5.39,-0.73 -6.47,-0.3 z"
   id="path150"
   style="fill:#ffffff;fill-opacity:1" /><g
   id="g156"
   transform="translate(-52.06,-495.03)"
   style="fill:#ffffff;fill-opacity:1">
			<path
   class="st8"
   d="m 66.24,520.41 c -0.08,0 -0.17,-0.02 -0.24,-0.08 l -5.85,-4.15 c -0.19,-0.13 -0.23,-0.39 -0.1,-0.58 0.13,-0.19 0.39,-0.23 0.58,-0.1 l 5.85,4.15 c 0.19,0.13 0.23,0.39 0.1,0.58 -0.08,0.11 -0.21,0.18 -0.34,0.18 z"
   id="path154"
   style="fill:#ffffff;fill-opacity:1" />
		</g><g
   id="g160"
   transform="translate(-52.06,-495.03)"
   style="fill:#ffffff;fill-opacity:1">
				<path
   class="st8"
   d="m 67.41,523.03 c -1.14,1.44 -3.63,4.15 -6.86,5.22 -4.47,1.48 -7.82,-0.19 -7.97,-0.27 l -0.52,-0.27 0.08,-0.58 c 0.02,-0.18 0.63,-4.47 5.32,-6.78 4.67,-2.3 10.09,0.42 10.32,0.54 l 0.83,0.42 -0.51,0.78 c -0.03,0.05 -0.27,0.41 -0.69,0.94 z m -13.47,3.7 c 1.03,0.34 3.32,0.85 6.09,-0.06 2.8,-0.93 5.05,-3.39 6.07,-4.68 -1.61,-0.61 -5.02,-1.56 -7.9,-0.13 -2.92,1.43 -3.93,3.76 -4.26,4.87 z"
   id="path158"
   style="fill:#ffffff;fill-opacity:1" />
			</g><g
   id="g164"
   transform="translate(-52.06,-495.03)"
   style="fill:#ffffff;fill-opacity:1">
				<path
   class="st8"
   d="m 66.82,522.24 c -0.05,0.07 -0.12,0.12 -0.21,0.14 l -6.88,2.01 c -0.22,0.06 -0.45,-0.06 -0.52,-0.28 -0.06,-0.22 0.06,-0.45 0.28,-0.52 l 6.88,-2.01 c 0.22,-0.06 0.45,0.06 0.52,0.28 0.04,0.14 0.01,0.27 -0.07,0.38 z"
   id="path162"
   style="fill:#ffffff;fill-opacity:1" />
			</g><g
   id="g178"
   transform="translate(-52.06,-495.03)"
   style="fill:#ffffff;fill-opacity:1">
		<g
   id="g172"
   style="fill:#ffffff;fill-opacity:1">
			<path
   class="st8"
   d="m 80.75,513.34 c -1.52,-1.2 -4.37,-3.82 -5.5,-7.22 -1.56,-4.7 0.2,-8.24 0.28,-8.39 l 0.28,-0.55 0.61,0.08 c 0.19,0.02 4.7,0.67 7.14,5.6 2.42,4.91 -0.44,10.63 -0.56,10.87 l -0.45,0.87 -0.82,-0.54 c -0.05,-0.03 -0.43,-0.29 -0.98,-0.72 z m -3.9,-14.19 c -0.36,1.09 -0.9,3.5 0.07,6.41 0.98,2.95 3.57,5.31 4.93,6.4 0.64,-1.69 1.64,-5.28 0.14,-8.32 -1.52,-3.08 -3.97,-4.14 -5.14,-4.49 z"
   id="path170"
   style="fill:#ffffff;fill-opacity:1" />
		</g>
		<g
   id="g176"
   style="fill:#ffffff;fill-opacity:1">
			<path
   class="st8"
   d="m 81.77,512.67 c -0.07,-0.05 -0.13,-0.12 -0.16,-0.21 l -2.46,-7.14 c -0.08,-0.23 0.04,-0.48 0.27,-0.56 0.23,-0.08 0.48,0.04 0.56,0.27 l 2.46,7.14 c 0.08,0.23 -0.04,0.48 -0.27,0.56 -0.14,0.05 -0.28,0.02 -0.4,-0.06 z"
   id="path174"
   style="fill:#ffffff;fill-opacity:1" />
		</g>
	</g><circle
   class="st15"
   cx="7.8900008"
   cy="6.7999864"
   r="3.72"
   id="circle180"
   style="fill:none;fill-opacity:1;stroke:#ffffff;stroke-opacity:1" /><g
   id="g190"
   transform="translate(-52.06,-495.03)"
   style="fill:#ffffff;fill-opacity:1">
		<g
   id="g184"
   style="fill:#ffffff;fill-opacity:1">
			<path
   class="st8"
   d="m 93.16,523.62 c -1.16,-0.27 -3.42,-0.97 -4.93,-2.55 -2.09,-2.19 -2.04,-4.61 -2.04,-4.71 l 0.01,-0.38 0.36,-0.12 c 0.11,-0.04 2.77,-0.86 5.41,1.23 2.63,2.08 2.54,5.99 2.53,6.15 l -0.02,0.6 -0.59,-0.08 c -0.03,0 -0.31,-0.04 -0.73,-0.14 z M 87.3,516.8 c 0.09,0.7 0.42,2.17 1.71,3.52 1.31,1.37 3.36,2 4.4,2.24 -0.09,-1.1 -0.48,-3.35 -2.1,-4.63 -1.65,-1.29 -3.28,-1.24 -4.01,-1.13 z"
   id="path182"
   style="fill:#ffffff;fill-opacity:1" />
		</g>
		<g
   id="g188"
   style="fill:#ffffff;fill-opacity:1">
			<path
   class="st8"
   d="m 93.6,522.95 c -0.05,-0.01 -0.1,-0.03 -0.15,-0.07 l -3.3,-3.23 c -0.11,-0.1 -0.11,-0.27 0,-0.38 0.1,-0.11 0.27,-0.11 0.38,0 l 3.3,3.23 c 0.11,0.1 0.11,0.27 0,0.38 -0.06,0.06 -0.15,0.09 -0.23,0.07 z"
   id="path186"
   style="fill:#ffffff;fill-opacity:1" />
		</g>
	</g>



<g
   id="g256"
   transform="translate(-52.06,-495.03)">
		<path
   class="st8"
   d="m 549.09,547.01 c -0.01,0 -0.02,0 -0.03,0 l -43.53,-0.22 c -2,-0.01 -3.83,-0.89 -5.15,-2.46 -1.19,-1.43 -1.84,-3.3 -1.82,-5.26 l 0.15,-17.36 57.62,0.29 -0.15,17.35 c -0.01,0.92 -0.16,1.83 -0.46,2.69 -1.06,3.03 -3.65,4.97 -6.63,4.97 z"
   id="path254" />
	</g><path
   class="st17"
   d="m 471.02,10.88 -4.76,-0.65 -0.21,-4.8 2.32,-2.12 c -0.53,-0.07 -1.07,-0.08 -1.62,0 -3.33,0.45 -5.66,3.52 -5.21,6.85 0.27,1.98 1.47,3.61 3.1,4.5 l 1.98,14.52 7.18,-0.98 -1.98,-14.52 c 1.33,-1.3 2.05,-3.19 1.78,-5.17 v 0 z"
   id="path280"
   style="fill:#ffffff;fill-opacity:1" /><path
   class="st20"
   d="M 459.45,26.68 H 449.38 V 0.71 h 10.07 z"
   id="path286"
   style="opacity:0.7;fill:#ffffff;fill-opacity:1" /><polygon
   class="st17"
   points="538.12,521.99 538.12,518.21 536.81,518.21 536.81,503 538.12,503 536.81,497.23 534.99,497.23 533.66,503 534.99,503 534.99,518.21 533.66,518.21 533.66,521.99 "
   id="polygon292"
   transform="translate(-52.06,-495.03)"
   style="fill:#ffffff;fill-opacity:1" /><path
   class="st8"
   d="m 497.03,51.98 c -0.01,0 -0.02,0 -0.03,0 l -43.53,-0.22 c -2,-0.01 -3.83,-0.89 -5.15,-2.46 -1.19,-1.43 -1.84,-3.3 -1.82,-5.26 l 0.15,-17.36 57.62,0.29 -0.15,17.35 c -0.01,0.92 -0.16,1.83 -0.46,2.69 -1.06,3.03 -3.65,4.97 -6.63,4.97 z"
   id="path274"
   style="fill:#ffffff;fill-opacity:1" /><path
   class="st20"
   d="M 502.75,26.96 H 492.68 V 0.71 h 10.07 z"
   id="path282"
   style="opacity:0.7;fill:#ffffff;fill-opacity:1" />


<circle
   class="st22"
   cx="132.68001"
   cy="29.980009"
   r="3.9100001"
   id="circle342" /><circle
   class="st22"
   cx="183.36"
   cy="29.980009"
   r="3.9100001"
   id="circle344" /><circle
   class="st22"
   cx="203.36"
   cy="11.350005"
   r="3.9100001"
   id="circle346" /><circle
   class="st22"
   cx="132.68001"
   cy="29.980009"
   r="3.9100001"
   id="circle350"
   style="fill:none;fill-opacity:1;stroke:#ffffff;stroke-opacity:1" /><circle
   class="st22"
   cx="183.36"
   cy="29.980009"
   r="3.9100001"
   id="circle352"
   style="stroke:#ffffff;stroke-opacity:1" /><circle
   class="st22"
   cx="203.36"
   cy="11.350005"
   r="3.9100001"
   id="circle354"
   style="stroke:#ffffff;stroke-opacity:1" />



















<path
   class="st0"
   d="m 293.35,18.77 c -1.56,0 -2.83,-1.27 -2.83,-2.83 V 5.37 c 0,-1.56 1.27,-2.83 2.83,-2.83 h 20.8 c 1.56,0 2.83,1.27 2.83,2.83 v 5.7 c 0,0.75 0.25,1.49 0.71,2.09 l 4.32,5.61 z"
   id="path440"
   style="fill:#bdbdbd;fill-opacity:1" /><g
   id="g444"
   transform="translate(-52.06,-495.03)">
			<path
   class="st8"
   d="m 375.66,516.34 h -30.25 c -2.96,0 -5.37,-2.41 -5.37,-5.37 V 500.4 c 0,-2.96 2.41,-5.37 5.37,-5.37 h 20.8 c 2.96,0 5.37,2.41 5.37,5.37 v 5.7 c 0,0.19 0.06,0.38 0.18,0.54 l 5.29,6.86 c 0.41,0.54 0.48,1.25 0.19,1.86 -0.3,0.6 -0.91,0.98 -1.58,0.98 z m -30.25,-18.77 c -1.56,0 -2.83,1.27 -2.83,2.83 v 10.57 c 0,1.56 1.27,2.83 2.83,2.83 h 28.66 l -4.32,-5.61 c -0.46,-0.6 -0.71,-1.34 -0.71,-2.09 v -5.7 c 0,-1.56 -1.27,-2.83 -2.83,-2.83 z"
   id="path442" />
		</g><rect
   x="309.47"
   y="8.98001"
   class="st8"
   width="3.3499999"
   height="3.3499999"
   id="rect490"
   style="opacity:0.7;fill:#ffffff;fill-opacity:1;stroke:#ffffff;stroke-opacity:1" /><g
   id="g462"
   transform="translate(-52.06,-495.03)">
			<path
   class="st8"
   d="m 404.83,540.58 h -30.25 c -0.68,0 -1.28,-0.38 -1.58,-0.99 -0.3,-0.61 -0.23,-1.32 0.19,-1.86 l 5.29,-6.86 c 0.12,-0.15 0.18,-0.34 0.18,-0.54 v -5.7 c 0,-2.96 2.41,-5.37 5.37,-5.37 h 20.8 c 2.96,0 5.37,2.41 5.37,5.37 v 10.57 c 0.01,2.97 -2.4,5.38 -5.37,5.38 z"
   id="path460" />
		</g><g
   class="st26"
   id="g476"
   transform="translate(-52.06,-495.03)">
			<g
   id="g466">
				
					<rect
   x="400.12"
   y="528.25"
   transform="rotate(180,401.79115,529.92345)"
   class="st0"
   width="3.3499999"
   height="3.3499999"
   id="rect464" />
			</g>
			<g
   id="g470">
				
					<rect
   x="392.79001"
   y="528.25"
   transform="rotate(180,394.4608,529.92345)"
   class="st0"
   width="3.3499999"
   height="3.3499999"
   id="rect468" />
			</g>
			<g
   id="g474">
				
					<rect
   x="385.35999"
   y="528.25"
   transform="rotate(180,387.03615,529.92345)"
   class="st0"
   width="3.3499999"
   height="3.3499999"
   id="rect472" />
			</g>
		</g><g
   id="g480"
   transform="translate(-52.06,-495.03)"
   style="fill:#ffffff;fill-opacity:1">
			<path
   class="st8"
   d="m 375.66,516.34 h -30.25 c -2.96,0 -5.37,-2.41 -5.37,-5.37 V 500.4 c 0,-2.96 2.41,-5.37 5.37,-5.37 h 20.8 c 2.96,0 5.37,2.41 5.37,5.37 v 5.7 c 0,0.19 0.06,0.38 0.18,0.54 l 5.29,6.86 c 0.41,0.54 0.48,1.25 0.19,1.86 -0.3,0.6 -0.91,0.98 -1.58,0.98 z m -30.25,-18.77 c -1.56,0 -2.83,1.27 -2.83,2.83 v 10.57 c 0,1.56 1.27,2.83 2.83,2.83 h 28.66 l -4.32,-5.61 c -0.46,-0.6 -0.71,-1.34 -0.71,-2.09 v -5.7 c 0,-1.56 -1.27,-2.83 -2.83,-2.83 z"
   id="path478"
   style="fill:#ffffff;fill-opacity:1" />
		</g><g
   id="g484"
   style="opacity:0.7;fill:#ffffff;fill-opacity:1;stroke:#ffffff;stroke-opacity:1"
   transform="translate(-52.06,-495.03)">
				<rect
   x="346.78"
   y="504.01001"
   class="st8"
   width="3.3499999"
   height="3.3499999"
   id="rect482"
   style="fill:#ffffff;fill-opacity:1;stroke:#ffffff;stroke-opacity:1" />
			</g><g
   id="g488"
   style="opacity:0.7;fill:#ffffff;fill-opacity:1;stroke:#ffffff;stroke-opacity:1"
   transform="translate(-52.06,-495.03)">
				<rect
   x="354.10999"
   y="504.01001"
   class="st8"
   width="3.3499999"
   height="3.3499999"
   id="rect486"
   style="fill:#ffffff;fill-opacity:1;stroke:#ffffff;stroke-opacity:1" />
			</g><path
   class="st8"
   d="m 352.77,45.55 h -30.25 c -0.68,0 -1.28,-0.38 -1.58,-0.99 -0.3,-0.61 -0.23,-1.32 0.19,-1.86 l 5.29,-6.86 c 0.12,-0.15 0.18,-0.34 0.18,-0.54 v -5.7 c 0,-2.96 2.41,-5.37 5.37,-5.37 h 20.8 c 2.96,0 5.37,2.41 5.37,5.37 v 10.57 c 0.01,2.97 -2.4,5.38 -5.37,5.38 z"
   id="path496"
   style="fill:#ffffff;fill-opacity:1" /><g
   class="st26"
   id="g512"
   transform="translate(-52.06,-495.03)"
   style="fill:#adadad;fill-opacity:1">
			<g
   id="g502"
   style="fill:#adadad;fill-opacity:1">
				
					<rect
   x="400.12"
   y="528.25"
   transform="rotate(180,401.79115,529.92345)"
   class="st0"
   width="3.3499999"
   height="3.3499999"
   id="rect500"
   style="fill:#adadad;fill-opacity:1" />
			</g>
			<g
   id="g506"
   style="fill:#adadad;fill-opacity:1">
				
					<rect
   x="392.79001"
   y="528.25"
   transform="rotate(180,394.4608,529.92345)"
   class="st0"
   width="3.3499999"
   height="3.3499999"
   id="rect504"
   style="fill:#adadad;fill-opacity:1" />
			</g>
			<g
   id="g510"
   style="fill:#adadad;fill-opacity:1">
				
					<rect
   x="385.35999"
   y="528.25"
   transform="rotate(180,387.03615,529.92345)"
   class="st0"
   width="3.3499999"
   height="3.3499999"
   id="rect508"
   style="fill:#adadad;fill-opacity:1" />
			</g>
		</g>
<path
   class="st21"
   d="m 180.66,28.28 h -29.9 L 162.3,13.41 h 38.26 V 9.6 h -40.13 l -14.49,18.68 h -9.86 v 3.81 h 44.58 z"
   id="path348"
   style="fill:#ffffff;fill-opacity:1" /><rect
   x="459.45001"
   y="6.6100144"
   class="st16"
   width="33.220001"
   height="3.79"
   id="rect278"
   style="fill:#ffffff;fill-opacity:1" /></svg>
