<?xml version="1.0" encoding="utf-8"?>
<!-- Generator: Adobe Illustrator 24.2.0, SVG Export Plug-In . SVG Version: 6.00 Build 0)  -->
<svg version="1.1" id="Layer_1" xmlns="http://www.w3.org/2000/svg" xmlns:xlink="http://www.w3.org/1999/xlink" x="0px" y="0px"
	 viewBox="0 0 612 792" style="enable-background:new 0 0 612 792;" xml:space="preserve">
<style type="text/css">
	.st0{fill:#FFFFFF;}
	.st1{fill:#E8AD35;}
	.st2{fill:#010101;stroke:#F9F9FA;stroke-width:4;stroke-miterlimit:10;}
	.st3{fill:none;}
	.st4{font-family:'MyriadPro-Regular';}
	.st5{font-size:18px;}
	.st6{fill:none;stroke:#000000;stroke-width:0.5;stroke-miterlimit:10;}
	.st7{fill:#AA7C2C;}
	.st8{fill:#E8AD36;}
	.st9{fill:#010101;}
	.st10{font-family:'Roboto-Regular';}
	.st11{font-size:14px;}
	.st12{opacity:0.6;fill:#E8C178;}
	.st13{fill:none;stroke:#E8AD36;stroke-width:4;stroke-miterlimit:10;}
	.st14{fill:none;stroke:#E8AD36;stroke-width:3;stroke-linecap:round;stroke-miterlimit:10;}
	.st15{fill:none;stroke:#E8AD36;stroke-width:4;stroke-linecap:round;stroke-miterlimit:10;}
	.st16{opacity:0.4;fill:#E8AD36;}
	.st17{opacity:0.9;fill:#E8AD36;}
	.st18{opacity:0.72;}
	.st19{opacity:0.7;}
	.st20{fill:#E8C178;}
	.st21{opacity:0.6;fill:#E8AD36;}
	.st22{fill:none;stroke:#E8AD36;stroke-width:3;stroke-miterlimit:10;}
	.st23{fill:#F0CF97;}
	.st24{font-size:12px;}
	.st25{fill:none;stroke:#000000;stroke-miterlimit:10;}
	.st26{opacity:0.8;}
</style>
<rect class="st0" width="612" height="792"/>
<rect x="65.81" y="243.49" class="st1" width="198.57" height="178.6"/>
<g>
	<polygon class="st2" points="234.6,317.25 210.09,317.25 210.09,294.2 104.13,294.2 104.13,317.25 104.13,320.78 104.13,340.26 
		104.13,347.55 95.68,370.6 207.91,370.6 208.74,348.01 234.6,347.55 	"/>
	<g>
		<g>
			<path class="st0" d="M111.9,310.9c0-1.77,0.1-3.23,0.31-4.36c0.2-1.13,0.56-2.02,1.08-2.66c0.51-0.64,1.22-1.08,2.13-1.33
				c0.9-0.25,2.07-0.37,3.51-0.37c1.42,0,2.58,0.12,3.5,0.37c0.91,0.25,1.63,0.69,2.14,1.33s0.87,1.52,1.06,2.66
				c0.19,1.14,0.29,2.59,0.29,4.36c0,1.77-0.1,3.22-0.29,4.35c-0.2,1.13-0.55,2.01-1.06,2.65s-1.23,1.08-2.14,1.33
				c-0.91,0.25-2.08,0.37-3.5,0.37c-1.44,0-2.61-0.12-3.51-0.37c-0.9-0.25-1.61-0.69-2.13-1.33c-0.51-0.64-0.87-1.52-1.08-2.65
				C112.01,314.13,111.9,312.68,111.9,310.9z M115.41,316.81h4.79c0.83,0,1.41-0.13,1.74-0.4s0.49-0.74,0.49-1.41v-10.03h-4.81
				c-0.83,0-1.41,0.13-1.73,0.4c-0.32,0.27-0.48,0.74-0.48,1.41V316.81z"/>
			<path class="st0" d="M129.62,323.83V305.9h1.54l1.73,2.87v14.71L129.62,323.83z M136.35,319.6c-1.1,0-2.01-0.1-2.73-0.31
				c-0.72-0.2-1.28-0.57-1.68-1.09c-0.4-0.52-0.68-1.24-0.84-2.15s-0.24-2.08-0.24-3.5c0-1.4,0.08-2.55,0.24-3.46
				s0.44-1.61,0.84-2.11s0.96-0.86,1.68-1.06c0.72-0.2,1.63-0.31,2.73-0.31c0.98,0,1.79,0.11,2.43,0.33
				c0.65,0.22,1.16,0.59,1.53,1.1c0.37,0.51,0.64,1.22,0.8,2.13s0.24,2.03,0.24,3.38c0,1.37-0.08,2.5-0.24,3.4s-0.43,1.63-0.81,2.17
				c-0.38,0.54-0.9,0.92-1.54,1.14C138.1,319.49,137.3,319.6,136.35,319.6z M132.89,316.99h3.8c0.46,0,0.78-0.04,0.94-0.13
				c0.17-0.09,0.25-0.27,0.25-0.53v-8.11h-3.83c-0.44,0-0.75,0.04-0.92,0.12c-0.17,0.08-0.25,0.23-0.25,0.44V316.99z"/>
			<path class="st0" d="M149.78,319.49c-1.06,0-1.96-0.12-2.69-0.35c-0.73-0.23-1.3-0.61-1.72-1.14c-0.42-0.53-0.72-1.24-0.92-2.13
				c-0.2-0.89-0.29-1.99-0.29-3.32c0-1.74,0.19-3.11,0.57-4.12c0.38-1.01,1.01-1.73,1.88-2.17c0.87-0.43,2.04-0.65,3.51-0.65
				c1.44,0,2.55,0.12,3.35,0.36c0.8,0.24,1.36,0.66,1.68,1.25c0.32,0.59,0.48,1.43,0.48,2.51c0,0.89-0.1,1.61-0.31,2.17
				c-0.2,0.56-0.59,0.99-1.16,1.29c-0.57,0.3-1.37,0.51-2.42,0.62c-1.05,0.12-2.42,0.17-4.12,0.17h-0.8v-1.94h3.75
				c0.82,0,1.37-0.1,1.68-0.31c0.3-0.2,0.45-0.59,0.45-1.16v-2.39h-2.95c-0.82,0-1.37,0.1-1.68,0.29c-0.3,0.2-0.45,0.57-0.45,1.12
				v7.13c0.64,0.18,1.52,0.27,2.63,0.27c0.73,0,1.45-0.05,2.17-0.15s1.54-0.27,2.46-0.52l0.4,2.34c-0.71,0.27-1.55,0.47-2.53,0.61
				C151.78,319.42,150.79,319.49,149.78,319.49z"/>
			<path class="st0" d="M159.48,319.2v-13.3h1.54l0.85,1.33c0.69-0.55,1.45-0.96,2.27-1.22c0.82-0.27,1.75-0.4,2.78-0.4
				c1.24,0,2.19,0.21,2.83,0.62c0.65,0.42,0.97,1.02,0.97,1.82v11.14h-3.27v-10.9h-2.74c-0.76,0-1.28,0.1-1.56,0.29
				c-0.28,0.2-0.41,0.55-0.41,1.06v9.55H159.48z"/>
			<path class="st0" d="M115.81,340.16h-3.27v-16.62h3.27V340.16z M122.49,333.16h-7.1v-2.5h7.1V333.16z M122.06,323.53h3.27v16.62
				h-3.27V323.53z"/>
			<path class="st0" d="M133.5,340.45c-1.49,0-2.56-0.32-3.22-0.96c-0.66-0.64-0.98-1.69-0.98-3.16c0-0.89,0.1-1.61,0.31-2.17
				c0.2-0.56,0.57-0.99,1.09-1.29c0.52-0.3,1.28-0.51,2.27-0.62c0.99-0.12,2.29-0.17,3.88-0.17h1.3v1.94h-3.78
				c-0.82,0-1.37,0.1-1.65,0.31c-0.28,0.2-0.43,0.59-0.43,1.16v2.58h2.98c0.8,0,1.34-0.1,1.64-0.31c0.29-0.2,0.44-0.57,0.44-1.1
				v-7.31c-0.57-0.18-1.37-0.27-2.39-0.27c-0.71,0-1.45,0.05-2.23,0.16c-0.78,0.11-1.59,0.27-2.42,0.51l-0.43-2.34
				c0.5-0.18,1.05-0.33,1.66-0.45s1.25-0.22,1.93-0.28c0.67-0.06,1.33-0.09,1.97-0.09c1.26,0,2.27,0.13,3.02,0.39
				c0.75,0.26,1.3,0.67,1.65,1.25c0.35,0.58,0.52,1.34,0.52,2.3v9.65h-1.57l-0.85-1.33C136.93,339.91,135.36,340.45,133.5,340.45z"
				/>
			<path class="st0" d="M146.9,326.86l1.04,2.02c0.74-0.67,1.41-1.2,1.99-1.58c0.58-0.38,1.16-0.66,1.73-0.84l0.29,3.19
				c-0.35,0.09-0.74,0.22-1.16,0.4c-0.42,0.18-0.82,0.36-1.21,0.56c-0.39,0.2-0.72,0.4-0.98,0.61v8.94h-3.27v-13.3H146.9z"/>
			<path class="st0" d="M159.22,326.57c1.12,0,2.03,0.1,2.74,0.31c0.71,0.2,1.26,0.56,1.66,1.06s0.68,1.21,0.84,2.11
				s0.24,2.06,0.24,3.46c0,1.44-0.08,2.61-0.24,3.52c-0.16,0.91-0.44,1.63-0.84,2.14s-0.95,0.88-1.66,1.09
				c-0.71,0.21-1.62,0.31-2.74,0.29c-0.98-0.02-1.79-0.13-2.43-0.35c-0.65-0.21-1.16-0.58-1.53-1.12c-0.37-0.53-0.64-1.25-0.8-2.15
				c-0.16-0.9-0.24-2.05-0.24-3.43c0-1.35,0.08-2.47,0.24-3.38s0.43-1.62,0.81-2.14c0.38-0.52,0.9-0.9,1.54-1.12
				C157.46,326.65,158.26,326.55,159.22,326.57z M162.67,329.17h-3.8c-0.46,0-0.78,0.04-0.94,0.13c-0.17,0.09-0.25,0.27-0.25,0.53
				v8.11h3.83c0.46,0,0.77-0.04,0.93-0.13c0.16-0.09,0.24-0.27,0.24-0.53V329.17z M165.95,322.23v17.93h-1.54l-1.73-2.87v-14.71
				L165.95,322.23z"/>
			<path class="st0" d="M171.88,340.16l-3.11-13.3h3.22l2.26,10.48h0.27l2.29-10.48h2.53l-3.01,13.3H171.88z M180.23,340.16
				l-3.03-13.3h2.53l2.31,10.48h0.27l2.23-10.48h3.22l-3.08,13.3H180.23z"/>
			<path class="st0" d="M193.92,340.45c-1.49,0-2.56-0.32-3.22-0.96c-0.66-0.64-0.98-1.69-0.98-3.16c0-0.89,0.1-1.61,0.31-2.17
				c0.2-0.56,0.57-0.99,1.09-1.29c0.52-0.3,1.28-0.51,2.27-0.62c0.99-0.12,2.29-0.17,3.88-0.17h1.3v1.94h-3.78
				c-0.82,0-1.37,0.1-1.65,0.31c-0.28,0.2-0.43,0.59-0.43,1.16v2.58h2.98c0.8,0,1.34-0.1,1.64-0.31c0.29-0.2,0.44-0.57,0.44-1.1
				v-7.31c-0.57-0.18-1.37-0.27-2.39-0.27c-0.71,0-1.45,0.05-2.23,0.16c-0.78,0.11-1.59,0.27-2.42,0.51l-0.43-2.34
				c0.5-0.18,1.05-0.33,1.66-0.45s1.25-0.22,1.93-0.28c0.67-0.06,1.33-0.09,1.97-0.09c1.26,0,2.27,0.13,3.02,0.39
				c0.75,0.26,1.3,0.67,1.65,1.25c0.35,0.58,0.52,1.34,0.52,2.3v9.65h-1.57l-0.85-1.33C197.35,339.91,195.79,340.45,193.92,340.45z"
				/>
			<path class="st0" d="M207.33,326.86l1.04,2.02c0.74-0.67,1.41-1.2,1.99-1.58c0.58-0.38,1.16-0.66,1.73-0.84l0.29,3.19
				c-0.35,0.09-0.74,0.22-1.16,0.4c-0.42,0.18-0.82,0.36-1.21,0.56c-0.39,0.2-0.72,0.4-0.98,0.61v8.94h-3.27v-13.3H207.33z"/>
			<path class="st0" d="M220.25,340.45c-1.06,0-1.96-0.12-2.69-0.35c-0.73-0.23-1.3-0.61-1.72-1.14c-0.42-0.53-0.72-1.24-0.92-2.13
				c-0.2-0.89-0.29-1.99-0.29-3.32c0-1.74,0.19-3.11,0.57-4.12c0.38-1.01,1.01-1.73,1.88-2.17c0.87-0.43,2.04-0.65,3.51-0.65
				c1.44,0,2.55,0.12,3.35,0.36c0.8,0.24,1.36,0.66,1.68,1.25c0.32,0.59,0.48,1.43,0.48,2.51c0,0.89-0.1,1.61-0.31,2.17
				c-0.2,0.56-0.59,0.99-1.16,1.29c-0.57,0.3-1.37,0.51-2.42,0.62c-1.05,0.12-2.42,0.17-4.12,0.17h-0.8V333h3.75
				c0.82,0,1.37-0.1,1.68-0.31c0.3-0.2,0.45-0.59,0.45-1.16v-2.39h-2.95c-0.82,0-1.37,0.1-1.68,0.29c-0.3,0.2-0.45,0.57-0.45,1.12
				v7.13c0.64,0.18,1.52,0.27,2.63,0.27c0.73,0,1.45-0.05,2.17-0.15s1.54-0.27,2.46-0.52l0.4,2.34c-0.71,0.27-1.55,0.47-2.53,0.61
				C222.26,340.38,221.26,340.45,220.25,340.45z"/>
			<path class="st0" d="M112.14,361.11l1.09-16.62h4.36l3.32,11.52h0.19l3.32-11.52h4.36l1.09,16.62h-3.24l-0.74-11.97h-0.19
				l-3.4,11.97h-2.58l-3.43-11.97h-0.16l-0.74,11.97H112.14z"/>
			<path class="st0" d="M137.09,361.4c-1.49,0-2.56-0.32-3.22-0.96c-0.66-0.64-0.98-1.69-0.98-3.16c0-0.89,0.1-1.61,0.31-2.17
				c0.2-0.56,0.57-0.99,1.09-1.29c0.52-0.3,1.28-0.51,2.27-0.62c0.99-0.12,2.29-0.17,3.88-0.17h1.3v1.94h-3.78
				c-0.82,0-1.37,0.1-1.65,0.31c-0.28,0.2-0.43,0.59-0.43,1.16v2.58h2.98c0.8,0,1.34-0.1,1.64-0.31c0.29-0.2,0.44-0.57,0.44-1.1
				v-7.31c-0.57-0.18-1.37-0.27-2.39-0.27c-0.71,0-1.45,0.05-2.23,0.16c-0.78,0.11-1.59,0.27-2.42,0.51l-0.43-2.34
				c0.5-0.18,1.05-0.33,1.66-0.45s1.25-0.22,1.93-0.28c0.67-0.06,1.33-0.09,1.97-0.09c1.26,0,2.27,0.13,3.02,0.39
				c0.75,0.26,1.3,0.67,1.65,1.25c0.35,0.58,0.52,1.34,0.52,2.3v9.65h-1.57l-0.85-1.33C140.52,360.86,138.95,361.4,137.09,361.4z"/>
			<path class="st0" d="M153.5,355.1h-1.84v6.01h-3.27v-17.29l3.27-0.4v9.49h1.81l2.61-5.11h3.43l-3.32,6.22l3.46,7.07h-3.38
				L153.5,355.1z"/>
			<path class="st0" d="M166.9,361.4c-1.06,0-1.96-0.12-2.69-0.35c-0.73-0.23-1.3-0.61-1.72-1.14c-0.42-0.53-0.72-1.24-0.92-2.13
				c-0.2-0.89-0.29-1.99-0.29-3.32c0-1.74,0.19-3.11,0.57-4.12c0.38-1.01,1.01-1.73,1.88-2.17c0.87-0.43,2.04-0.65,3.51-0.65
				c1.44,0,2.55,0.12,3.35,0.36c0.8,0.24,1.36,0.66,1.68,1.25c0.32,0.59,0.48,1.43,0.48,2.51c0,0.89-0.1,1.61-0.31,2.17
				c-0.2,0.56-0.59,0.99-1.16,1.29c-0.57,0.3-1.37,0.51-2.42,0.62c-1.05,0.12-2.42,0.17-4.12,0.17h-0.8v-1.94h3.75
				c0.82,0,1.37-0.1,1.68-0.31c0.3-0.2,0.45-0.59,0.45-1.16v-2.39h-2.95c-0.82,0-1.37,0.1-1.68,0.29c-0.3,0.2-0.45,0.57-0.45,1.12
				v7.13c0.64,0.18,1.52,0.27,2.63,0.27c0.73,0,1.45-0.05,2.17-0.15s1.54-0.27,2.46-0.52l0.4,2.34c-0.71,0.27-1.55,0.47-2.53,0.61
				C168.91,361.33,167.91,361.4,166.9,361.4z"/>
			<path class="st0" d="M178.18,347.81l1.04,2.02c0.74-0.67,1.41-1.2,1.99-1.58c0.58-0.38,1.16-0.66,1.73-0.84l0.29,3.19
				c-0.35,0.09-0.74,0.22-1.16,0.4c-0.42,0.18-0.82,0.36-1.21,0.56c-0.39,0.2-0.72,0.4-0.98,0.61v8.94h-3.27v-13.3H178.18z"/>
			<path class="st0" d="M184.88,351.51c0-1.42,0.43-2.46,1.28-3.11s2.18-0.98,3.99-0.98c0.83,0,1.64,0.04,2.42,0.13
				s1.54,0.24,2.29,0.45l-0.43,2.34c-0.44-0.12-0.95-0.22-1.53-0.29s-1.14-0.11-1.69-0.11c-0.53,0-1.05,0.02-1.56,0.07
				c-0.51,0.04-0.94,0.1-1.29,0.17v2.63c1.47,0.2,2.67,0.4,3.6,0.62c0.93,0.22,1.65,0.49,2.17,0.81c0.51,0.32,0.87,0.72,1.08,1.21
				c0.2,0.49,0.31,1.09,0.31,1.79c0,1.03-0.2,1.85-0.58,2.47c-0.39,0.62-1.02,1.07-1.88,1.36c-0.86,0.28-1.99,0.43-3.39,0.43
				c-0.83,0-1.68-0.07-2.54-0.21c-0.86-0.14-1.7-0.34-2.51-0.58l0.51-2.53c1.33,0.53,2.77,0.8,4.31,0.8c0.48,0,0.91-0.02,1.29-0.07
				c0.38-0.04,0.83-0.13,1.34-0.25V356c-1.56-0.21-2.81-0.43-3.76-0.64s-1.67-0.47-2.15-0.78c-0.49-0.31-0.82-0.71-1-1.2
				C184.97,352.9,184.88,352.27,184.88,351.51z"/>
		</g>
	</g>
	<path class="st0" d="M201.16,308.83l-2.89-0.54c-0.07-0.01-0.15-0.08-0.17-0.15l-0.88-2.06c-0.03-0.06-0.03-0.16,0.01-0.22
		l1.68-2.45c0.04-0.06,0.03-0.15-0.02-0.2l-2.1-2.1c-0.05-0.05-0.14-0.06-0.2-0.02l-2.49,1.71c-0.06,0.04-0.16,0.05-0.22,0.02
		l-2-0.82c-0.07-0.02-0.13-0.1-0.15-0.17l-0.56-2.98c-0.01-0.07-0.08-0.13-0.15-0.13h-2.97c-0.07,0-0.14,0.06-0.15,0.13l-0.56,2.98
		c-0.01,0.07-0.08,0.15-0.15,0.17l-2,0.82c-0.06,0.03-0.17,0.02-0.22-0.02l-2.49-1.71c-0.06-0.04-0.15-0.03-0.2,0.02l-2.1,2.1
		c-0.05,0.05-0.06,0.14-0.02,0.2l1.68,2.45c0.04,0.06,0.05,0.16,0.01,0.22l-0.88,2.06c-0.02,0.07-0.1,0.13-0.17,0.15l-2.89,0.54
		c-0.07,0.01-0.13,0.08-0.13,0.15l0,2.97c0,0.07,0.06,0.14,0.13,0.15l2.81,0.52c0.07,0.01,0.15,0.08,0.17,0.15l0.88,2.19
		c0.03,0.06,0.02,0.17-0.02,0.22l-1.6,2.33c-0.04,0.06-0.03,0.15,0.02,0.2l2.1,2.1c0.05,0.05,0.14,0.06,0.2,0.02l2.29-1.57
		c0.06-0.04,0.16-0.04,0.22-0.01l1.01,0.54c0.06,0.03,0.14,0.01,0.17-0.06l2.08-5.03c0.03-0.07,0-0.15-0.06-0.19l-0.25-0.15
		c-0.05-0.03-0.11-0.08-0.16-0.12c-0.91-0.58-1.52-1.6-1.52-2.77c0-1.81,1.47-3.28,3.28-3.28s3.28,1.47,3.28,3.28
		c0,1.16-0.6,2.18-1.52,2.77c-0.05,0.04-0.11,0.09-0.16,0.12l-0.25,0.15c-0.06,0.04-0.09,0.12-0.06,0.19l2.08,5.03
		c0.03,0.07,0.1,0.09,0.17,0.06l1.01-0.54c0.06-0.04,0.16-0.03,0.22,0.01l2.29,1.57c0.06,0.04,0.15,0.03,0.2-0.02l2.1-2.1
		c0.05-0.05,0.06-0.14,0.02-0.2l-1.6-2.33c-0.04-0.06-0.05-0.16-0.02-0.22l0.88-2.19c0.02-0.07,0.1-0.14,0.17-0.15l2.81-0.52
		c0.07-0.01,0.13-0.08,0.13-0.15l0-2.97C201.29,308.91,201.23,308.84,201.16,308.83"/>
</g>
<rect x="71.67" y="45.19" class="st3" width="184.21" height="42.48"/>
<text transform="matrix(1 0 0 1 71.6738 57.9729)"><tspan x="0" y="0" class="st4 st5">Open Hardware Makers</tspan><tspan x="0" y="19" class="st4 st5">2020 Style Guide</tspan></text>
<rect x="45.07" y="30.88" class="st6" width="226.94" height="61.13"/>
<g>
	<g>
		<path class="st7" d="M41.62,653.44c0-1.2,0.07-2.18,0.21-2.95c0.14-0.77,0.38-1.37,0.73-1.8c0.35-0.43,0.83-0.73,1.44-0.9
			c0.61-0.17,1.4-0.25,2.38-0.25c0.96,0,1.75,0.08,2.37,0.25s1.1,0.47,1.45,0.9c0.35,0.43,0.59,1.03,0.72,1.8
			c0.13,0.77,0.2,1.75,0.2,2.95c0,1.2-0.07,2.18-0.2,2.94c-0.13,0.76-0.37,1.36-0.72,1.79c-0.35,0.43-0.83,0.73-1.45,0.9
			s-1.41,0.25-2.37,0.25c-0.97,0-1.76-0.08-2.38-0.25c-0.61-0.17-1.09-0.47-1.44-0.9c-0.35-0.43-0.59-1.03-0.73-1.79
			C41.68,655.62,41.62,654.64,41.62,653.44z M43.99,657.43h3.24c0.56,0,0.96-0.09,1.18-0.27c0.22-0.18,0.33-0.5,0.33-0.95v-6.79
			h-3.26c-0.56,0-0.95,0.09-1.17,0.27c-0.22,0.18-0.32,0.5-0.32,0.95V657.43z"/>
		<path class="st7" d="M53.78,662.18v-12.13h1.04L56,652v9.95L53.78,662.18z M58.34,659.32c-0.74,0-1.36-0.07-1.84-0.21
			c-0.49-0.14-0.86-0.38-1.13-0.74c-0.27-0.35-0.46-0.84-0.57-1.46c-0.11-0.62-0.16-1.41-0.16-2.37c0-0.95,0.05-1.73,0.16-2.34
			c0.11-0.61,0.3-1.09,0.57-1.43c0.27-0.34,0.65-0.58,1.13-0.72c0.49-0.14,1.1-0.21,1.84-0.21c0.66,0,1.21,0.08,1.65,0.23
			c0.44,0.15,0.78,0.4,1.04,0.75c0.25,0.35,0.43,0.83,0.54,1.44c0.11,0.61,0.16,1.37,0.16,2.29c0,0.92-0.05,1.69-0.16,2.3
			c-0.11,0.61-0.29,1.1-0.55,1.47c-0.26,0.37-0.61,0.62-1.04,0.77C59.53,659.25,58.99,659.32,58.34,659.32z M56,657.56h2.57
			c0.31,0,0.52-0.03,0.64-0.09c0.11-0.06,0.17-0.18,0.17-0.36v-5.49h-2.59c-0.3,0-0.51,0.03-0.62,0.08
			c-0.11,0.05-0.17,0.15-0.17,0.3V657.56z"/>
		<path class="st7" d="M67.61,659.25c-0.72,0-1.33-0.08-1.82-0.23c-0.49-0.16-0.88-0.41-1.16-0.77c-0.28-0.36-0.49-0.84-0.62-1.44
			c-0.13-0.6-0.2-1.35-0.2-2.25c0-1.18,0.13-2.11,0.39-2.79s0.68-1.17,1.27-1.47c0.59-0.29,1.38-0.44,2.38-0.44
			c0.97,0,1.73,0.08,2.27,0.24s0.92,0.44,1.13,0.85c0.22,0.4,0.32,0.97,0.32,1.7c0,0.6-0.07,1.09-0.21,1.47s-0.4,0.67-0.78,0.87
			c-0.38,0.2-0.93,0.35-1.64,0.42s-1.64,0.12-2.79,0.12h-0.54v-1.31h2.54c0.55,0,0.93-0.07,1.13-0.21s0.31-0.4,0.31-0.78v-1.62h-2
			c-0.55,0-0.93,0.07-1.13,0.2s-0.31,0.38-0.31,0.76v4.82c0.43,0.12,1.03,0.18,1.78,0.18c0.49,0,0.98-0.03,1.47-0.1
			c0.49-0.07,1.04-0.18,1.67-0.35l0.27,1.58c-0.48,0.18-1.05,0.32-1.71,0.41C68.96,659.2,68.29,659.25,67.61,659.25z"/>
		<path class="st7" d="M74.36,659.05v-9h1.04l0.58,0.9c0.47-0.37,0.98-0.65,1.54-0.83c0.56-0.18,1.18-0.27,1.88-0.27
			c0.84,0,1.48,0.14,1.92,0.42c0.44,0.28,0.66,0.69,0.66,1.23v7.54h-2.21v-7.38H77.9c-0.52,0-0.87,0.07-1.05,0.2
			c-0.19,0.13-0.28,0.37-0.28,0.72v6.46H74.36z"/>
		<path class="st7" d="M91.67,659.05h-2.21V647.8h2.21V659.05z M96.19,654.32h-4.81v-1.69h4.81V654.32z M95.9,647.8h2.21v11.25H95.9
			V647.8z"/>
		<path class="st7" d="M103.46,659.25c-1.01,0-1.73-0.22-2.18-0.65c-0.44-0.43-0.67-1.15-0.67-2.14c0-0.6,0.07-1.09,0.21-1.47
			c0.14-0.38,0.38-0.67,0.74-0.87c0.35-0.2,0.87-0.34,1.54-0.42c0.67-0.08,1.55-0.12,2.63-0.12h0.88v1.31h-2.56
			c-0.55,0-0.92,0.07-1.12,0.21c-0.19,0.14-0.29,0.4-0.29,0.78v1.75h2.02c0.54,0,0.91-0.07,1.11-0.21c0.2-0.14,0.3-0.39,0.3-0.75
			v-4.95c-0.38-0.12-0.92-0.18-1.62-0.18c-0.48,0-0.98,0.04-1.51,0.11c-0.53,0.07-1.07,0.19-1.64,0.34l-0.29-1.58
			c0.34-0.12,0.71-0.22,1.12-0.31s0.85-0.15,1.31-0.19c0.46-0.04,0.9-0.06,1.33-0.06c0.85,0,1.53,0.09,2.04,0.26
			c0.51,0.17,0.88,0.46,1.12,0.85c0.23,0.39,0.35,0.91,0.35,1.56v6.53h-1.06l-0.58-0.9C105.78,658.88,104.72,659.25,103.46,659.25z"
			/>
		<path class="st7" d="M112.35,650.05l0.7,1.37c0.5-0.46,0.95-0.81,1.35-1.07c0.4-0.26,0.79-0.45,1.17-0.57l0.2,2.16
			c-0.24,0.06-0.5,0.15-0.78,0.27c-0.28,0.12-0.56,0.25-0.82,0.38s-0.49,0.27-0.67,0.41v6.05h-2.21v-9H112.35z"/>
		<path class="st7" d="M120.51,649.85c0.76,0,1.37,0.07,1.85,0.21c0.48,0.14,0.85,0.38,1.12,0.72c0.27,0.34,0.46,0.82,0.57,1.43
			c0.11,0.61,0.16,1.39,0.16,2.34c0,0.97-0.05,1.77-0.16,2.38c-0.11,0.62-0.3,1.1-0.57,1.45c-0.27,0.35-0.65,0.59-1.12,0.74
			c-0.48,0.14-1.1,0.21-1.85,0.2c-0.66-0.01-1.21-0.09-1.65-0.23c-0.44-0.14-0.78-0.4-1.04-0.76c-0.25-0.36-0.43-0.85-0.54-1.46
			c-0.11-0.61-0.16-1.39-0.16-2.32c0-0.91,0.05-1.67,0.16-2.29c0.11-0.61,0.29-1.09,0.55-1.45c0.26-0.35,0.61-0.61,1.04-0.76
			C119.32,649.91,119.86,649.84,120.51,649.85z M122.85,651.62h-2.57c-0.31,0-0.52,0.03-0.64,0.09c-0.11,0.06-0.17,0.18-0.17,0.36
			v5.49h2.59c0.31,0,0.52-0.03,0.63-0.09c0.11-0.06,0.16-0.18,0.16-0.36V651.62z M125.06,646.92v12.13h-1.04l-1.17-1.94v-9.95
			L125.06,646.92z"/>
		<path class="st7" d="M128.9,659.05l-2.11-9h2.18l1.53,7.09h0.18l1.55-7.09h1.71l-2.03,9H128.9z M134.55,659.05l-2.05-9h1.71
			l1.57,7.09h0.18l1.51-7.09h2.18l-2.09,9H134.55z"/>
		<path class="st7" d="M143.64,659.25c-1.01,0-1.73-0.22-2.18-0.65c-0.44-0.43-0.67-1.15-0.67-2.14c0-0.6,0.07-1.09,0.21-1.47
			c0.14-0.38,0.38-0.67,0.74-0.87c0.35-0.2,0.87-0.34,1.54-0.42c0.67-0.08,1.55-0.12,2.63-0.12h0.88v1.31h-2.56
			c-0.55,0-0.92,0.07-1.12,0.21c-0.19,0.14-0.29,0.4-0.29,0.78v1.75h2.02c0.54,0,0.91-0.07,1.11-0.21c0.2-0.14,0.3-0.39,0.3-0.75
			v-4.95c-0.38-0.12-0.92-0.18-1.62-0.18c-0.48,0-0.98,0.04-1.51,0.11c-0.53,0.07-1.07,0.19-1.64,0.34l-0.29-1.58
			c0.34-0.12,0.71-0.22,1.12-0.31s0.85-0.15,1.31-0.19c0.46-0.04,0.9-0.06,1.33-0.06c0.85,0,1.53,0.09,2.04,0.26
			c0.51,0.17,0.88,0.46,1.12,0.85c0.23,0.39,0.35,0.91,0.35,1.56v6.53h-1.06l-0.58-0.9C145.96,658.88,144.9,659.25,143.64,659.25z"
			/>
		<path class="st7" d="M152.53,650.05l0.7,1.37c0.5-0.46,0.95-0.81,1.35-1.07c0.4-0.26,0.79-0.45,1.17-0.57l0.2,2.16
			c-0.24,0.06-0.5,0.15-0.78,0.27c-0.28,0.12-0.56,0.25-0.82,0.38s-0.49,0.27-0.67,0.41v6.05h-2.21v-9H152.53z"/>
		<path class="st7" d="M161.1,659.25c-0.72,0-1.33-0.08-1.82-0.23c-0.49-0.16-0.88-0.41-1.16-0.77c-0.28-0.36-0.49-0.84-0.62-1.44
			c-0.13-0.6-0.2-1.35-0.2-2.25c0-1.18,0.13-2.11,0.39-2.79s0.68-1.17,1.27-1.47c0.59-0.29,1.38-0.44,2.38-0.44
			c0.97,0,1.73,0.08,2.27,0.24s0.92,0.44,1.13,0.85c0.22,0.4,0.32,0.97,0.32,1.7c0,0.6-0.07,1.09-0.21,1.47s-0.4,0.67-0.78,0.87
			c-0.38,0.2-0.93,0.35-1.64,0.42s-1.64,0.12-2.79,0.12h-0.54v-1.31h2.54c0.55,0,0.93-0.07,1.13-0.21s0.31-0.4,0.31-0.78v-1.62h-2
			c-0.55,0-0.93,0.07-1.13,0.2s-0.31,0.38-0.31,0.76v4.82c0.43,0.12,1.03,0.18,1.78,0.18c0.49,0,0.98-0.03,1.47-0.1
			c0.49-0.07,1.04-0.18,1.67-0.35l0.27,1.58c-0.48,0.18-1.05,0.32-1.71,0.41C162.45,659.2,161.78,659.25,161.1,659.25z"/>
		<path class="st7" d="M172.06,659.05l0.74-11.25h2.95l2.25,7.79h0.13l2.25-7.79h2.95l0.74,11.25h-2.2l-0.5-8.1h-0.13l-2.3,8.1
			h-1.75l-2.32-8.1h-0.11l-0.5,8.1H172.06z"/>
		<path class="st7" d="M189.12,659.25c-1.01,0-1.73-0.22-2.18-0.65c-0.44-0.43-0.67-1.15-0.67-2.14c0-0.6,0.07-1.09,0.21-1.47
			c0.14-0.38,0.38-0.67,0.74-0.87c0.35-0.2,0.87-0.34,1.54-0.42c0.67-0.08,1.55-0.12,2.63-0.12h0.88v1.31h-2.56
			c-0.55,0-0.92,0.07-1.12,0.21c-0.19,0.14-0.29,0.4-0.29,0.78v1.75h2.02c0.54,0,0.91-0.07,1.11-0.21c0.2-0.14,0.3-0.39,0.3-0.75
			v-4.95c-0.38-0.12-0.92-0.18-1.62-0.18c-0.48,0-0.98,0.04-1.51,0.11c-0.53,0.07-1.07,0.19-1.64,0.34l-0.29-1.58
			c0.34-0.12,0.71-0.22,1.12-0.31s0.85-0.15,1.31-0.19c0.46-0.04,0.9-0.06,1.33-0.06c0.85,0,1.53,0.09,2.04,0.26
			c0.51,0.17,0.88,0.46,1.12,0.85c0.23,0.39,0.35,0.91,0.35,1.56v6.53h-1.06l-0.58-0.9C191.45,658.88,190.38,659.25,189.12,659.25z"
			/>
		<path class="st7" d="M200.41,654.98h-1.24v4.07h-2.21v-11.7l2.21-0.27v6.43h1.22l1.76-3.46h2.32l-2.25,4.21l2.34,4.79h-2.29
			L200.41,654.98z"/>
		<path class="st7" d="M209.66,659.25c-0.72,0-1.33-0.08-1.82-0.23c-0.49-0.16-0.88-0.41-1.16-0.77c-0.28-0.36-0.49-0.84-0.62-1.44
			c-0.13-0.6-0.2-1.35-0.2-2.25c0-1.18,0.13-2.11,0.39-2.79s0.68-1.17,1.27-1.47c0.59-0.29,1.38-0.44,2.38-0.44
			c0.97,0,1.73,0.08,2.27,0.24s0.92,0.44,1.13,0.85c0.22,0.4,0.32,0.97,0.32,1.7c0,0.6-0.07,1.09-0.21,1.47s-0.4,0.67-0.78,0.87
			c-0.38,0.2-0.93,0.35-1.64,0.42s-1.64,0.12-2.79,0.12h-0.54v-1.31h2.54c0.55,0,0.93-0.07,1.13-0.21s0.31-0.4,0.31-0.78v-1.62h-2
			c-0.55,0-0.93,0.07-1.13,0.2s-0.31,0.38-0.31,0.76v4.82c0.43,0.12,1.03,0.18,1.78,0.18c0.49,0,0.98-0.03,1.47-0.1
			c0.49-0.07,1.04-0.18,1.67-0.35l0.27,1.58c-0.48,0.18-1.05,0.32-1.71,0.41C211.02,659.2,210.34,659.25,209.66,659.25z"/>
		<path class="st7" d="M217.47,650.05l0.7,1.37c0.5-0.46,0.95-0.81,1.35-1.07c0.4-0.26,0.79-0.45,1.17-0.57l0.2,2.16
			c-0.24,0.06-0.5,0.15-0.78,0.27c-0.28,0.12-0.56,0.25-0.82,0.38s-0.49,0.27-0.67,0.41v6.05h-2.21v-9H217.47z"/>
		<path class="st7" d="M222.19,652.55c0-0.96,0.29-1.66,0.86-2.11c0.58-0.44,1.48-0.67,2.7-0.67c0.56,0,1.11,0.03,1.64,0.09
			c0.53,0.06,1.04,0.16,1.55,0.31l-0.29,1.58c-0.3-0.08-0.65-0.15-1.04-0.2c-0.39-0.05-0.77-0.07-1.14-0.07
			c-0.36,0-0.71,0.01-1.05,0.04c-0.34,0.03-0.63,0.07-0.87,0.12v1.78c1,0.13,1.81,0.27,2.44,0.42c0.63,0.15,1.12,0.33,1.47,0.55
			c0.35,0.22,0.59,0.49,0.73,0.82c0.14,0.33,0.21,0.74,0.21,1.21c0,0.7-0.13,1.25-0.4,1.67c-0.26,0.42-0.69,0.73-1.27,0.92
			c-0.58,0.19-1.35,0.29-2.29,0.29c-0.56,0-1.14-0.05-1.72-0.14s-1.15-0.23-1.7-0.4l0.34-1.71c0.9,0.36,1.87,0.54,2.92,0.54
			c0.32,0,0.62-0.01,0.87-0.04c0.26-0.03,0.56-0.09,0.91-0.17v-1.8c-1.06-0.14-1.91-0.29-2.55-0.43c-0.64-0.14-1.13-0.32-1.46-0.53
			s-0.55-0.48-0.67-0.81S222.19,653.07,222.19,652.55z"/>
	</g>
</g>
<g>
	<g>
		<path class="st8" d="M47.93,633.8h-4.43v-22.5h4.43V633.8z M56.97,624.33h-9.61v-3.38h9.61V624.33z M56.39,611.3h4.43v22.5h-4.43
			V611.3z"/>
		<path class="st8" d="M73.6,634.19c-1.44,0-2.65-0.16-3.64-0.47c-0.98-0.31-1.76-0.83-2.32-1.55c-0.56-0.72-0.98-1.68-1.24-2.88
			s-0.4-2.7-0.4-4.5c0-2.35,0.26-4.21,0.77-5.58c0.52-1.37,1.36-2.35,2.54-2.93s2.76-0.88,4.75-0.88c1.94,0,3.46,0.16,4.54,0.49
			s1.84,0.89,2.27,1.69c0.43,0.8,0.65,1.94,0.65,3.4c0,1.2-0.14,2.18-0.41,2.93c-0.28,0.76-0.8,1.34-1.57,1.75
			c-0.77,0.41-1.86,0.69-3.28,0.85s-3.28,0.23-5.58,0.23h-1.08v-2.63h5.08c1.1,0,1.86-0.14,2.27-0.41c0.41-0.28,0.61-0.8,0.61-1.57
			v-3.24h-4c-1.1,0-1.86,0.13-2.27,0.4c-0.41,0.26-0.61,0.77-0.61,1.51v9.65c0.86,0.24,2.05,0.36,3.56,0.36
			c0.98,0,1.96-0.07,2.93-0.2s2.08-0.37,3.33-0.7l0.54,3.17c-0.96,0.36-2.1,0.64-3.42,0.83C76.31,634.1,74.97,634.19,73.6,634.19z"
			/>
		<path class="st8" d="M91.6,634.19c-2.02,0-3.47-0.43-4.36-1.3c-0.89-0.86-1.33-2.29-1.33-4.28c0-1.2,0.14-2.18,0.41-2.93
			c0.28-0.76,0.77-1.34,1.48-1.75c0.71-0.41,1.73-0.69,3.08-0.85c1.34-0.16,3.1-0.23,5.26-0.23h1.76v2.63h-5.11
			c-1.1,0-1.85,0.14-2.23,0.41c-0.38,0.28-0.58,0.8-0.58,1.57v3.49h4.03c1.08,0,1.82-0.14,2.21-0.41c0.4-0.28,0.59-0.77,0.59-1.49
			v-9.9c-0.77-0.24-1.85-0.36-3.24-0.36c-0.96,0-1.97,0.07-3.02,0.22c-1.06,0.14-2.15,0.37-3.28,0.68l-0.58-3.17
			c0.67-0.24,1.42-0.44,2.25-0.61c0.83-0.17,1.7-0.29,2.61-0.38s1.8-0.13,2.66-0.13c1.7,0,3.07,0.17,4.09,0.52
			c1.02,0.35,1.76,0.91,2.23,1.69c0.47,0.78,0.7,1.82,0.7,3.11v13.07h-2.12l-1.15-1.8C96.25,633.46,94.12,634.19,91.6,634.19z"/>
		<path class="st8" d="M113.02,615.4c1.51,0,2.75,0.14,3.71,0.41c0.96,0.28,1.71,0.76,2.25,1.44s0.92,1.64,1.13,2.86
			c0.22,1.22,0.32,2.78,0.32,4.68c0,1.94-0.11,3.53-0.32,4.77c-0.22,1.24-0.59,2.2-1.13,2.9c-0.54,0.7-1.29,1.19-2.25,1.48
			c-0.96,0.29-2.2,0.42-3.71,0.4c-1.32-0.02-2.42-0.18-3.29-0.47s-1.57-0.79-2.07-1.51c-0.5-0.72-0.86-1.69-1.08-2.92
			c-0.22-1.22-0.32-2.77-0.32-4.64c0-1.82,0.11-3.35,0.32-4.57c0.22-1.22,0.58-2.19,1.1-2.9c0.52-0.71,1.21-1.21,2.09-1.51
			C110.64,615.51,111.72,615.38,113.02,615.4z M117.7,618.93h-5.15c-0.62,0-1.05,0.06-1.28,0.18c-0.23,0.12-0.34,0.36-0.34,0.72
			v10.98h5.18c0.62,0,1.04-0.06,1.26-0.18s0.32-0.36,0.32-0.72V618.93z M122.13,609.53v24.26h-2.09l-2.34-3.89V610L122.13,609.53z"
			/>
		<path class="st8" d="M130.55,613.02c-1.01,0-1.69-0.17-2.05-0.52c-0.36-0.35-0.54-1.01-0.54-2c0-1.01,0.18-1.69,0.54-2.05
			c0.36-0.36,1.04-0.54,2.05-0.54c0.98,0,1.66,0.18,2.02,0.54s0.54,1.04,0.54,2.05c0,0.98-0.17,1.65-0.52,2
			C132.24,612.85,131.56,613.02,130.55,613.02z M128.32,616.19l4.43-0.61v18.22h-4.43V616.19z"/>
		<path class="st8" d="M138.94,633.8v-18h2.09l1.15,1.8c0.94-0.74,1.96-1.3,3.08-1.66c1.12-0.36,2.37-0.54,3.76-0.54
			c1.68,0,2.96,0.28,3.83,0.85c0.88,0.56,1.31,1.39,1.31,2.47v15.08h-4.43v-14.76h-3.71c-1.03,0-1.73,0.13-2.11,0.4
			c-0.37,0.26-0.56,0.74-0.56,1.44v12.92H138.94z"/>
		<path class="st8" d="M166.16,628.58c-1.85,0-3.31-0.22-4.39-0.65c-1.08-0.43-1.86-1.13-2.34-2.09c-0.48-0.96-0.72-2.27-0.72-3.92
			c0-1.63,0.24-2.93,0.72-3.91c0.48-0.97,1.26-1.67,2.34-2.11c1.08-0.43,2.54-0.65,4.39-0.65c1.82,0,3.28,0.22,4.37,0.65
			c1.09,0.43,1.88,1.13,2.36,2.11c0.48,0.97,0.72,2.27,0.72,3.91c0,1.66-0.24,2.97-0.72,3.94c-0.48,0.97-1.26,1.67-2.34,2.09
			S168,628.58,166.16,628.58z M173.82,635.06c0,1.15-0.25,2.08-0.74,2.77c-0.49,0.7-1.28,1.2-2.36,1.51
			c-1.08,0.31-2.52,0.47-4.32,0.47c-1.34,0-2.66-0.1-3.94-0.29c-1.28-0.19-2.43-0.47-3.44-0.83l0.54-3.24
			c1.2,0.31,2.26,0.54,3.19,0.68c0.92,0.14,1.87,0.22,2.83,0.22c0.86,0,1.64-0.03,2.32-0.09c0.68-0.06,1.34-0.15,1.96-0.27v-2.38
			c-2.4-0.14-4.11-0.34-5.13-0.58s-1.53-0.56-1.53-0.97l1.15-4.14h2.84l-0.18,2.81c1.39,0.17,2.54,0.35,3.44,0.56
			c0.9,0.2,1.59,0.46,2.07,0.77c0.48,0.31,0.82,0.71,1.01,1.19C173.73,633.74,173.82,634.34,173.82,635.06z M163.02,625.91h3.96
			c0.86,0,1.46-0.14,1.8-0.43c0.34-0.29,0.5-0.82,0.5-1.58v-5.98h-3.96c-0.86,0-1.46,0.14-1.8,0.43s-0.5,0.8-0.5,1.55V625.91z
			 M172.2,619.29l-2.48-3.13l3.2-2.45l2.16,2.12L172.2,619.29z"/>
		<path class="st8" d="M186.32,633.8v-3.67h5.51v-14.98l-5.87,0.61v-3.92l10.3-1.08v19.37h4.39v3.67H186.32z"/>
	</g>
</g>
<rect x="40.59" y="675.16" class="st3" width="285.74" height="72.38"/>
<text transform="matrix(1 0 0 1 40.5897 685.6606)"><tspan x="0" y="0" class="st9 st10 st11">Lorem ipsum dolor sit amet, consectetuer </tspan><tspan x="0" y="16.8" class="st9 st10 st11">adipiscing elit, sed diam nonummy nibh </tspan><tspan x="0" y="33.6" class="st9 st10 st11">euismod tincidunt ut laoreet dolore magna </tspan><tspan x="0" y="50.4" class="st9 st10 st11">aliquam erat volutpat. Ut wisi enim ad minim </tspan></text>
<g>
	<path class="st12" d="M97.64,521.68c-0.59-0.73-1.66-0.85-2.39-0.26l-14.31,11.46l-0.13-7.88l3.12-10.25l10.19-7.23l-1.97-2.77
		l-11.14,7.9l-1.92,6.29l-4.78-10.89l-10.93-5.81l-1.6,3l9.89,5.26l5.71,12.99l0.04,2.58l-9.34-6.16c-0.78-0.52-1.84-0.3-2.36,0.48
		c-0.52,0.78-0.3,1.84,0.48,2.36l11.28,7.43l0.38,23.55c0.01,0.93,0.77,1.67,1.7,1.67c0.01,0,0.02,0,0.03,0
		c0.94-0.01,1.69-0.79,1.67-1.73L81,537.13c0.1-0.05,0.2-0.11,0.29-0.18l16.08-12.88C98.1,523.48,98.22,522.41,97.64,521.68z"/>
	<path class="st13" d="M79.46,548.05c0,0,1.88-9.39,9.01-12.77s12.77,0,12.77,0s-1.13,5.63-7.13,9.58
		C88.1,548.8,79.46,548.05,79.46,548.05z"/>
	<path class="st13" d="M79.46,548.05c0,0-1.88-9.39-9.01-12.77s-12.77,0-12.77,0s1.13,5.63,7.13,9.58
		C70.83,548.8,79.46,548.05,79.46,548.05z"/>
	<line class="st14" x1="80.82" y1="547.23" x2="89.89" y2="540.95"/>
	<line class="st14" x1="78.1" y1="547.23" x2="68.57" y2="540.47"/>
	<circle class="st15" cx="96.57" cy="504.68" r="3.72"/>
	<circle class="st15" cx="98.34" cy="519.62" r="3.72"/>
	<g>
		<g>
			<path class="st8" d="M65.99,521.36c-1.84,0-5.51-0.26-8.35-2.13c-3.93-2.58-4.71-6.25-4.74-6.41l-0.12-0.58l0.5-0.3
				c0.16-0.09,3.89-2.28,8.62-0.04c4.7,2.23,5.94,8.17,5.99,8.42l0.18,0.91l-0.93,0.08C67.09,521.33,66.66,521.36,65.99,521.36z
				 M54.72,513.1c0.37,1.02,1.39,3.13,3.83,4.73c2.47,1.62,5.79,1.85,7.44,1.85c-0.52-1.63-1.89-4.9-4.8-6.28
				C58.25,512.02,55.8,512.67,54.72,513.1z"/>
		</g>
		<g>
			<path class="st8" d="M66.24,520.41c-0.08,0-0.17-0.02-0.24-0.08l-5.85-4.15c-0.19-0.13-0.23-0.39-0.1-0.58
				c0.13-0.19,0.39-0.23,0.58-0.1l5.85,4.15c0.19,0.13,0.23,0.39,0.1,0.58C66.5,520.34,66.37,520.41,66.24,520.41z"/>
		</g>
		<g>
			<g>
				<path class="st8" d="M67.41,523.03c-1.14,1.44-3.63,4.15-6.86,5.22c-4.47,1.48-7.82-0.19-7.97-0.27l-0.52-0.27l0.08-0.58
					c0.02-0.18,0.63-4.47,5.32-6.78c4.67-2.3,10.09,0.42,10.32,0.54l0.83,0.42l-0.51,0.78C68.07,522.14,67.83,522.5,67.41,523.03z
					 M53.94,526.73c1.03,0.34,3.32,0.85,6.09-0.06c2.8-0.93,5.05-3.39,6.07-4.68c-1.61-0.61-5.02-1.56-7.9-0.13
					C55.28,523.29,54.27,525.62,53.94,526.73z"/>
			</g>
			<g>
				<path class="st8" d="M66.82,522.24c-0.05,0.07-0.12,0.12-0.21,0.14l-6.88,2.01c-0.22,0.06-0.45-0.06-0.52-0.28
					c-0.06-0.22,0.06-0.45,0.28-0.52l6.88-2.01c0.22-0.06,0.45,0.06,0.52,0.28C66.93,522,66.9,522.13,66.82,522.24z"/>
			</g>
		</g>
	</g>
	<g>
		<g>
			<path class="st8" d="M80.75,513.34c-1.52-1.2-4.37-3.82-5.5-7.22c-1.56-4.7,0.2-8.24,0.28-8.39l0.28-0.55l0.61,0.08
				c0.19,0.02,4.7,0.67,7.14,5.6c2.42,4.91-0.44,10.63-0.56,10.87l-0.45,0.87l-0.82-0.54C81.68,514.03,81.3,513.77,80.75,513.34z
				 M76.85,499.15c-0.36,1.09-0.9,3.5,0.07,6.41c0.98,2.95,3.57,5.31,4.93,6.4c0.64-1.69,1.64-5.28,0.14-8.32
				C80.47,500.56,78.02,499.5,76.85,499.15z"/>
		</g>
		<g>
			<path class="st8" d="M81.77,512.67c-0.07-0.05-0.13-0.12-0.16-0.21l-2.46-7.14c-0.08-0.23,0.04-0.48,0.27-0.56
				c0.23-0.08,0.48,0.04,0.56,0.27l2.46,7.14c0.08,0.23-0.04,0.48-0.27,0.56C82.03,512.78,81.89,512.75,81.77,512.67z"/>
		</g>
	</g>
	<circle class="st15" cx="59.95" cy="501.83" r="3.72"/>
	<g>
		<g>
			<path class="st8" d="M93.16,523.62c-1.16-0.27-3.42-0.97-4.93-2.55c-2.09-2.19-2.04-4.61-2.04-4.71l0.01-0.38l0.36-0.12
				c0.11-0.04,2.77-0.86,5.41,1.23c2.63,2.08,2.54,5.99,2.53,6.15l-0.02,0.6l-0.59-0.08C93.86,523.76,93.58,523.72,93.16,523.62z
				 M87.3,516.8c0.09,0.7,0.42,2.17,1.71,3.52c1.31,1.37,3.36,2,4.4,2.24c-0.09-1.1-0.48-3.35-2.1-4.63
				C89.66,516.64,88.03,516.69,87.3,516.8z"/>
		</g>
		<g>
			<path class="st8" d="M93.6,522.95c-0.05-0.01-0.1-0.03-0.15-0.07l-3.3-3.23c-0.11-0.1-0.11-0.27,0-0.38
				c0.1-0.11,0.27-0.11,0.38,0l3.3,3.23c0.11,0.1,0.11,0.27,0,0.38C93.77,522.94,93.68,522.97,93.6,522.95z"/>
		</g>
	</g>
</g>
<g>
	<g>
		<path class="st7" d="M41.97,476.72v2.95h4.79v1.84h-7v-11.25h6.97l-0.25,1.84h-4.5v2.95h4.1v1.67H41.97z"/>
		<path class="st7" d="M52.1,472.31c0.76,0,1.37,0.07,1.85,0.21c0.48,0.14,0.85,0.38,1.12,0.72c0.27,0.34,0.46,0.82,0.57,1.43
			c0.11,0.61,0.16,1.39,0.16,2.34c0,0.97-0.05,1.77-0.16,2.38c-0.11,0.62-0.3,1.1-0.57,1.45c-0.27,0.35-0.65,0.59-1.12,0.74
			c-0.48,0.14-1.1,0.21-1.85,0.2c-0.66-0.01-1.21-0.09-1.65-0.23c-0.44-0.14-0.78-0.4-1.04-0.76c-0.25-0.36-0.43-0.85-0.54-1.46
			c-0.11-0.61-0.16-1.39-0.16-2.32c0-0.91,0.05-1.67,0.16-2.29c0.11-0.61,0.29-1.09,0.55-1.45c0.26-0.35,0.61-0.61,1.04-0.76
			C50.91,472.37,51.46,472.3,52.1,472.31z M54.44,474.08h-2.57c-0.31,0-0.52,0.03-0.64,0.09c-0.11,0.06-0.17,0.18-0.17,0.36v5.49
			h2.59c0.31,0,0.52-0.03,0.63-0.09c0.11-0.06,0.16-0.18,0.16-0.36V474.08z M56.66,469.38v12.13h-1.04l-1.17-1.94v-9.95
			L56.66,469.38z"/>
		<path class="st7" d="M67.28,472.51v9h-1.04l-0.58-0.9c-0.48,0.37-1.01,0.65-1.59,0.83c-0.58,0.18-1.23,0.27-1.95,0.27
			c-0.84,0-1.46-0.17-1.85-0.5c-0.4-0.33-0.59-0.85-0.59-1.56v-7.15h2.21v7.58h1.85c0.52,0,0.87-0.07,1.05-0.2
			c0.19-0.13,0.28-0.37,0.28-0.72v-6.66H67.28z"/>
		<path class="st7" d="M73.31,481.71c-0.66,0-1.21-0.08-1.66-0.23c-0.44-0.15-0.8-0.4-1.05-0.76c-0.26-0.35-0.44-0.83-0.56-1.44
			c-0.11-0.61-0.17-1.37-0.17-2.28s0.06-1.67,0.17-2.29s0.3-1.09,0.56-1.44c0.26-0.35,0.61-0.6,1.05-0.75
			c0.44-0.15,1-0.23,1.66-0.23c0.34,0,0.68,0.02,1.04,0.04c0.36,0.03,0.71,0.07,1.04,0.12c0.33,0.05,0.62,0.11,0.86,0.18l-0.23,1.62
			c-0.38-0.1-0.77-0.16-1.16-0.21c-0.39-0.04-0.78-0.06-1.18-0.06c-0.55,0-0.94,0.11-1.15,0.33s-0.32,0.6-0.32,1.14v4.36
			c0.37,0.12,0.91,0.18,1.62,0.18c0.38,0,0.76-0.03,1.13-0.1c0.37-0.07,0.8-0.18,1.28-0.35l0.22,1.58
			c-0.43,0.18-0.92,0.32-1.47,0.41C74.44,481.66,73.88,481.71,73.31,481.71z"/>
		<path class="st7" d="M80.94,481.71c-1.01,0-1.73-0.22-2.18-0.65c-0.44-0.43-0.67-1.15-0.67-2.14c0-0.6,0.07-1.09,0.21-1.47
			c0.14-0.38,0.38-0.67,0.74-0.87c0.35-0.2,0.87-0.34,1.54-0.42c0.67-0.08,1.55-0.12,2.63-0.12h0.88v1.31h-2.56
			c-0.55,0-0.92,0.07-1.12,0.21c-0.19,0.14-0.29,0.4-0.29,0.78v1.75h2.02c0.54,0,0.91-0.07,1.11-0.21c0.2-0.14,0.3-0.39,0.3-0.75
			v-4.95c-0.38-0.12-0.92-0.18-1.62-0.18c-0.48,0-0.98,0.04-1.51,0.11c-0.53,0.07-1.07,0.19-1.64,0.34l-0.29-1.58
			c0.34-0.12,0.71-0.22,1.12-0.31s0.85-0.15,1.31-0.19c0.46-0.04,0.9-0.06,1.33-0.06c0.85,0,1.53,0.09,2.04,0.26
			c0.51,0.17,0.88,0.46,1.12,0.85c0.23,0.39,0.35,0.91,0.35,1.56v6.53H84.7l-0.58-0.9C83.26,481.34,82.2,481.71,80.94,481.71z"/>
		<path class="st7" d="M88.08,474.01v-1.49H93v1.49H88.08z M90.82,481.71c-0.53,0-0.92-0.12-1.17-0.36s-0.38-0.62-0.38-1.13v-9.52
			l2.21-0.56v9.76c0.17,0.02,0.34,0.04,0.53,0.06c0.19,0.02,0.42,0.03,0.69,0.03l-0.13,1.51c-0.38,0.07-0.72,0.13-1.01,0.16
			C91.29,481.69,91.04,481.71,90.82,481.71z"/>
		<path class="st7" d="M96.49,471.13c-0.5,0-0.85-0.09-1.03-0.26c-0.18-0.17-0.27-0.51-0.27-1c0-0.5,0.09-0.85,0.27-1.03
			s0.52-0.27,1.03-0.27c0.49,0,0.83,0.09,1.01,0.27s0.27,0.52,0.27,1.03c0,0.49-0.09,0.83-0.26,1
			C97.33,471.04,96.99,471.13,96.49,471.13z M95.37,472.71l2.21-0.31v9.11h-2.21V472.71z"/>
		<path class="st7" d="M104.28,481.71c-0.79,0-1.45-0.08-1.98-0.23c-0.53-0.15-0.95-0.4-1.25-0.76c-0.31-0.35-0.53-0.83-0.67-1.44
			c-0.14-0.61-0.21-1.37-0.21-2.28s0.07-1.67,0.21-2.29c0.14-0.61,0.36-1.09,0.67-1.44c0.31-0.35,0.72-0.6,1.25-0.75
			c0.53-0.15,1.19-0.23,1.98-0.23c0.8,0,1.47,0.07,2,0.22c0.53,0.14,0.95,0.39,1.26,0.75c0.31,0.35,0.53,0.84,0.66,1.45
			s0.19,1.37,0.19,2.29s-0.07,1.67-0.2,2.28c-0.13,0.61-0.35,1.09-0.67,1.44c-0.31,0.35-0.73,0.61-1.26,0.76
			C105.74,481.64,105.08,481.71,104.28,481.71z M102.52,479.95h2.72c0.32,0,0.54-0.03,0.66-0.09c0.11-0.06,0.17-0.18,0.17-0.36
			v-5.42h-2.72c-0.32,0-0.54,0.03-0.66,0.09c-0.11,0.06-0.17,0.18-0.17,0.36V479.95z"/>
		<path class="st7" d="M110.98,481.51v-9h1.04l0.58,0.9c0.47-0.37,0.98-0.65,1.54-0.83c0.56-0.18,1.18-0.27,1.88-0.27
			c0.84,0,1.48,0.14,1.92,0.42c0.44,0.28,0.66,0.69,0.66,1.23v7.54h-2.21v-7.38h-1.85c-0.52,0-0.87,0.07-1.05,0.2
			c-0.19,0.13-0.28,0.37-0.28,0.72v6.46H110.98z"/>
	</g>
</g>
<g>
	<g>
		<path class="st8" d="M47.93,633.8h-4.43v-22.5h4.43V633.8z M56.97,624.33h-9.61v-3.38h9.61V624.33z M56.39,611.3h4.43v22.5h-4.43
			V611.3z"/>
		<path class="st8" d="M73.6,634.19c-1.44,0-2.65-0.16-3.64-0.47c-0.98-0.31-1.76-0.83-2.32-1.55c-0.56-0.72-0.98-1.68-1.24-2.88
			s-0.4-2.7-0.4-4.5c0-2.35,0.26-4.21,0.77-5.58c0.52-1.37,1.36-2.35,2.54-2.93s2.76-0.88,4.75-0.88c1.94,0,3.46,0.16,4.54,0.49
			s1.84,0.89,2.27,1.69c0.43,0.8,0.65,1.94,0.65,3.4c0,1.2-0.14,2.18-0.41,2.93c-0.28,0.76-0.8,1.34-1.57,1.75
			c-0.77,0.41-1.86,0.69-3.28,0.85s-3.28,0.23-5.58,0.23h-1.08v-2.63h5.08c1.1,0,1.86-0.14,2.27-0.41c0.41-0.28,0.61-0.8,0.61-1.57
			v-3.24h-4c-1.1,0-1.86,0.13-2.27,0.4c-0.41,0.26-0.61,0.77-0.61,1.51v9.65c0.86,0.24,2.05,0.36,3.56,0.36
			c0.98,0,1.96-0.07,2.93-0.2s2.08-0.37,3.33-0.7l0.54,3.17c-0.96,0.36-2.1,0.64-3.42,0.83C76.31,634.1,74.97,634.19,73.6,634.19z"
			/>
		<path class="st8" d="M91.6,634.19c-2.02,0-3.47-0.43-4.36-1.3c-0.89-0.86-1.33-2.29-1.33-4.28c0-1.2,0.14-2.18,0.41-2.93
			c0.28-0.76,0.77-1.34,1.48-1.75c0.71-0.41,1.73-0.69,3.08-0.85c1.34-0.16,3.1-0.23,5.26-0.23h1.76v2.63h-5.11
			c-1.1,0-1.85,0.14-2.23,0.41c-0.38,0.28-0.58,0.8-0.58,1.57v3.49h4.03c1.08,0,1.82-0.14,2.21-0.41c0.4-0.28,0.59-0.77,0.59-1.49
			v-9.9c-0.77-0.24-1.85-0.36-3.24-0.36c-0.96,0-1.97,0.07-3.02,0.22c-1.06,0.14-2.15,0.37-3.28,0.68l-0.58-3.17
			c0.67-0.24,1.42-0.44,2.25-0.61c0.83-0.17,1.7-0.29,2.61-0.38s1.8-0.13,2.66-0.13c1.7,0,3.07,0.17,4.09,0.52
			c1.02,0.35,1.76,0.91,2.23,1.69c0.47,0.78,0.7,1.82,0.7,3.11v13.07h-2.12l-1.15-1.8C96.25,633.46,94.12,634.19,91.6,634.19z"/>
		<path class="st8" d="M113.02,615.4c1.51,0,2.75,0.14,3.71,0.41c0.96,0.28,1.71,0.76,2.25,1.44s0.92,1.64,1.13,2.86
			c0.22,1.22,0.32,2.78,0.32,4.68c0,1.94-0.11,3.53-0.32,4.77c-0.22,1.24-0.59,2.2-1.13,2.9c-0.54,0.7-1.29,1.19-2.25,1.48
			c-0.96,0.29-2.2,0.42-3.71,0.4c-1.32-0.02-2.42-0.18-3.29-0.47s-1.57-0.79-2.07-1.51c-0.5-0.72-0.86-1.69-1.08-2.92
			c-0.22-1.22-0.32-2.77-0.32-4.64c0-1.82,0.11-3.35,0.32-4.57c0.22-1.22,0.58-2.19,1.1-2.9c0.52-0.71,1.21-1.21,2.09-1.51
			C110.64,615.51,111.72,615.38,113.02,615.4z M117.7,618.93h-5.15c-0.62,0-1.05,0.06-1.28,0.18c-0.23,0.12-0.34,0.36-0.34,0.72
			v10.98h5.18c0.62,0,1.04-0.06,1.26-0.18s0.32-0.36,0.32-0.72V618.93z M122.13,609.53v24.26h-2.09l-2.34-3.89V610L122.13,609.53z"
			/>
		<path class="st8" d="M130.55,613.02c-1.01,0-1.69-0.17-2.05-0.52c-0.36-0.35-0.54-1.01-0.54-2c0-1.01,0.18-1.69,0.54-2.05
			c0.36-0.36,1.04-0.54,2.05-0.54c0.98,0,1.66,0.18,2.02,0.54s0.54,1.04,0.54,2.05c0,0.98-0.17,1.65-0.52,2
			C132.24,612.85,131.56,613.02,130.55,613.02z M128.32,616.19l4.43-0.61v18.22h-4.43V616.19z"/>
		<path class="st8" d="M138.94,633.8v-18h2.09l1.15,1.8c0.94-0.74,1.96-1.3,3.08-1.66c1.12-0.36,2.37-0.54,3.76-0.54
			c1.68,0,2.96,0.28,3.83,0.85c0.88,0.56,1.31,1.39,1.31,2.47v15.08h-4.43v-14.76h-3.71c-1.03,0-1.73,0.13-2.11,0.4
			c-0.37,0.26-0.56,0.74-0.56,1.44v12.92H138.94z"/>
		<path class="st8" d="M166.16,628.58c-1.85,0-3.31-0.22-4.39-0.65c-1.08-0.43-1.86-1.13-2.34-2.09c-0.48-0.96-0.72-2.27-0.72-3.92
			c0-1.63,0.24-2.93,0.72-3.91c0.48-0.97,1.26-1.67,2.34-2.11c1.08-0.43,2.54-0.65,4.39-0.65c1.82,0,3.28,0.22,4.37,0.65
			c1.09,0.43,1.88,1.13,2.36,2.11c0.48,0.97,0.72,2.27,0.72,3.91c0,1.66-0.24,2.97-0.72,3.94c-0.48,0.97-1.26,1.67-2.34,2.09
			S168,628.58,166.16,628.58z M173.82,635.06c0,1.15-0.25,2.08-0.74,2.77c-0.49,0.7-1.28,1.2-2.36,1.51
			c-1.08,0.31-2.52,0.47-4.32,0.47c-1.34,0-2.66-0.1-3.94-0.29c-1.28-0.19-2.43-0.47-3.44-0.83l0.54-3.24
			c1.2,0.31,2.26,0.54,3.19,0.68c0.92,0.14,1.87,0.22,2.83,0.22c0.86,0,1.64-0.03,2.32-0.09c0.68-0.06,1.34-0.15,1.96-0.27v-2.38
			c-2.4-0.14-4.11-0.34-5.13-0.58s-1.53-0.56-1.53-0.97l1.15-4.14h2.84l-0.18,2.81c1.39,0.17,2.54,0.35,3.44,0.56
			c0.9,0.2,1.59,0.46,2.07,0.77c0.48,0.31,0.82,0.71,1.01,1.19C173.73,633.74,173.82,634.34,173.82,635.06z M163.02,625.91h3.96
			c0.86,0,1.46-0.14,1.8-0.43c0.34-0.29,0.5-0.82,0.5-1.58v-5.98h-3.96c-0.86,0-1.46,0.14-1.8,0.43s-0.5,0.8-0.5,1.55V625.91z
			 M172.2,619.29l-2.48-3.13l3.2-2.45l2.16,2.12L172.2,619.29z"/>
		<path class="st8" d="M186.32,633.8v-3.67h5.51v-14.98l-5.87,0.61v-3.92l10.3-1.08v19.37h4.39v3.67H186.32z"/>
	</g>
</g>
<g>
	<g>
		<path class="st7" d="M495.37,482.41c-0.44,0.17-0.91,0.29-1.4,0.36s-1.06,0.11-1.71,0.11c-0.86,0-1.58-0.09-2.14-0.28
			c-0.56-0.19-1-0.5-1.31-0.95c-0.31-0.44-0.53-1.04-0.67-1.8s-0.2-1.71-0.2-2.86c0-1.15,0.07-2.11,0.21-2.88
			c0.14-0.77,0.37-1.37,0.71-1.81c0.34-0.44,0.79-0.75,1.38-0.94c0.58-0.19,1.33-0.28,2.24-0.28c0.26,0,0.57,0.01,0.91,0.04
			c0.34,0.03,0.68,0.08,1,0.14c0.32,0.07,0.59,0.13,0.81,0.21l-0.29,1.8c-0.28-0.08-0.58-0.15-0.93-0.19
			c-0.34-0.04-0.67-0.08-0.98-0.11c-0.31-0.03-0.57-0.04-0.77-0.04c-0.68,0-1.17,0.08-1.47,0.25s-0.44,0.53-0.44,1.1v6.5
			c0.3,0.07,0.61,0.13,0.94,0.17c0.33,0.04,0.67,0.06,1.02,0.06c0.5,0,1-0.04,1.5-0.13s0.96-0.19,1.39-0.32L495.37,482.41z"/>
		<path class="st7" d="M501.04,482.81c-0.79,0-1.45-0.08-1.98-0.23c-0.53-0.15-0.95-0.4-1.25-0.76c-0.31-0.35-0.53-0.83-0.67-1.44
			c-0.14-0.61-0.21-1.37-0.21-2.28s0.07-1.67,0.21-2.29c0.14-0.61,0.36-1.09,0.67-1.44c0.31-0.35,0.72-0.6,1.25-0.75
			c0.53-0.15,1.19-0.23,1.98-0.23c0.8,0,1.47,0.07,2,0.22c0.53,0.14,0.95,0.39,1.26,0.75c0.31,0.35,0.53,0.84,0.66,1.45
			s0.19,1.37,0.19,2.29s-0.07,1.67-0.2,2.28c-0.13,0.61-0.35,1.09-0.67,1.44c-0.31,0.35-0.73,0.61-1.26,0.76
			C502.49,482.73,501.83,482.81,501.04,482.81z M499.28,481.04h2.72c0.32,0,0.54-0.03,0.66-0.09c0.11-0.06,0.17-0.18,0.17-0.36
			v-5.42h-2.72c-0.32,0-0.54,0.03-0.66,0.09c-0.11,0.06-0.17,0.18-0.17,0.36V481.04z"/>
		<path class="st7" d="M507.74,482.61v-9h1.04l0.58,0.9c0.46-0.37,0.95-0.65,1.49-0.83c0.53-0.18,1.12-0.27,1.75-0.27
			c0.84,0,1.48,0.14,1.92,0.42c0.44,0.28,0.66,0.69,0.66,1.23v7.54h-2.21v-7.38h-1.67c-0.52,0-0.87,0.07-1.05,0.2
			c-0.19,0.13-0.28,0.37-0.28,0.72v6.46H507.74z M512.96,482.61v-9l1.62,0.9c0.46-0.37,0.95-0.65,1.49-0.83
			c0.53-0.18,1.12-0.27,1.75-0.27c0.84,0,1.48,0.14,1.92,0.42c0.44,0.28,0.66,0.69,0.66,1.23v7.54h-2.21v-7.38h-1.67
			c-0.52,0-0.87,0.07-1.05,0.2c-0.19,0.13-0.28,0.37-0.28,0.72v6.46H512.96z"/>
		<path class="st7" d="M523.4,482.61v-9h1.04l0.58,0.9c0.46-0.37,0.95-0.65,1.49-0.83c0.53-0.18,1.12-0.27,1.75-0.27
			c0.84,0,1.48,0.14,1.92,0.42c0.44,0.28,0.66,0.69,0.66,1.23v7.54h-2.21v-7.38h-1.67c-0.52,0-0.87,0.07-1.05,0.2
			c-0.19,0.13-0.28,0.37-0.28,0.72v6.46H523.4z M528.62,482.61v-9l1.62,0.9c0.46-0.37,0.95-0.65,1.49-0.83
			c0.53-0.18,1.12-0.27,1.75-0.27c0.84,0,1.48,0.14,1.92,0.42c0.44,0.28,0.66,0.69,0.66,1.23v7.54h-2.21v-7.38h-1.67
			c-0.52,0-0.87,0.07-1.05,0.2c-0.19,0.13-0.28,0.37-0.28,0.72v6.46H528.62z"/>
		<path class="st7" d="M542.66,482.81c-0.79,0-1.45-0.08-1.98-0.23c-0.53-0.15-0.95-0.4-1.25-0.76c-0.31-0.35-0.53-0.83-0.67-1.44
			c-0.14-0.61-0.21-1.37-0.21-2.28s0.07-1.67,0.21-2.29c0.14-0.61,0.36-1.09,0.67-1.44c0.31-0.35,0.72-0.6,1.25-0.75
			c0.53-0.15,1.19-0.23,1.98-0.23c0.8,0,1.47,0.07,2,0.22c0.53,0.14,0.95,0.39,1.26,0.75c0.31,0.35,0.53,0.84,0.66,1.45
			s0.19,1.37,0.19,2.29s-0.07,1.67-0.2,2.28c-0.13,0.61-0.35,1.09-0.67,1.44c-0.31,0.35-0.73,0.61-1.26,0.76
			C544.11,482.73,543.45,482.81,542.66,482.81z M540.89,481.04h2.72c0.32,0,0.54-0.03,0.66-0.09c0.11-0.06,0.17-0.18,0.17-0.36
			v-5.42h-2.72c-0.32,0-0.54,0.03-0.66,0.09c-0.11,0.06-0.17,0.18-0.17,0.36V481.04z"/>
		<path class="st7" d="M549.35,482.61v-9h1.04l0.58,0.9c0.47-0.37,0.98-0.65,1.54-0.83c0.56-0.18,1.18-0.27,1.88-0.27
			c0.84,0,1.48,0.14,1.92,0.42c0.44,0.28,0.66,0.69,0.66,1.23v7.54h-2.21v-7.38h-1.85c-0.52,0-0.87,0.07-1.05,0.2
			c-0.19,0.13-0.28,0.37-0.28,0.72v6.46H549.35z"/>
		<path class="st7" d="M559.41,476.11c0-0.96,0.29-1.66,0.86-2.11c0.58-0.44,1.48-0.67,2.7-0.67c0.56,0,1.11,0.03,1.64,0.09
			c0.53,0.06,1.04,0.16,1.55,0.31l-0.29,1.58c-0.3-0.08-0.65-0.15-1.04-0.2c-0.39-0.05-0.77-0.07-1.14-0.07
			c-0.36,0-0.71,0.01-1.05,0.04c-0.34,0.03-0.63,0.07-0.87,0.12v1.78c1,0.13,1.81,0.27,2.44,0.42c0.63,0.15,1.12,0.33,1.47,0.55
			c0.35,0.22,0.59,0.49,0.73,0.82c0.14,0.33,0.21,0.74,0.21,1.21c0,0.7-0.13,1.25-0.4,1.67c-0.26,0.42-0.69,0.73-1.27,0.92
			c-0.58,0.19-1.35,0.29-2.29,0.29c-0.56,0-1.14-0.05-1.72-0.14s-1.15-0.23-1.7-0.4l0.34-1.71c0.9,0.36,1.87,0.54,2.92,0.54
			c0.32,0,0.62-0.01,0.87-0.04c0.26-0.03,0.56-0.09,0.91-0.17v-1.8c-1.06-0.14-1.91-0.29-2.55-0.43c-0.64-0.14-1.13-0.32-1.46-0.53
			s-0.55-0.48-0.67-0.81S559.41,476.63,559.41,476.11z"/>
	</g>
</g>
<g>
	<g>
		<path class="st8" d="M549.09,547.01c-0.01,0-0.02,0-0.03,0l-43.53-0.22c-2-0.01-3.83-0.89-5.15-2.46
			c-1.19-1.43-1.84-3.3-1.82-5.26l0.15-17.36l57.62,0.29l-0.15,17.35c-0.01,0.92-0.16,1.83-0.46,2.69
			C554.66,545.07,552.07,547.01,549.09,547.01z"/>
	</g>
	<rect x="511.51" y="501.64" class="st16" width="33.22" height="3.79"/>
	<path class="st17" d="M523.08,505.91l-4.76-0.65l-0.21-4.8l2.32-2.12c-0.53-0.07-1.07-0.08-1.62,0c-3.33,0.45-5.66,3.52-5.21,6.85
		c0.27,1.98,1.47,3.61,3.1,4.5l1.98,14.52l7.18-0.98l-1.98-14.52c1.33-1.3,2.05-3.19,1.78-5.17l0,0L523.08,505.91z"/>
	<g class="st18">
		<g class="st19">
			<path class="st8" d="M554.81,521.99h-10.07v-26.25h10.07V521.99z"/>
		</g>
		<g class="st19">
			<path class="st8" d="M511.51,521.71h-10.07v-25.97h10.07V521.71z"/>
		</g>
	</g>
	<polygon class="st17" points="536.81,503 538.12,503 536.81,497.23 534.99,497.23 533.66,503 534.99,503 534.99,518.21 
		533.66,518.21 533.66,521.99 538.12,521.99 538.12,518.21 536.81,518.21 	"/>
	<g>
		<path class="st8" d="M549.09,547.01c-0.01,0-0.02,0-0.03,0l-43.53-0.22c-2-0.01-3.83-0.89-5.15-2.46
			c-1.19-1.43-1.84-3.3-1.82-5.26l0.15-17.36l57.62,0.29l-0.15,17.35c-0.01,0.92-0.16,1.83-0.46,2.69
			C554.66,545.07,552.07,547.01,549.09,547.01z"/>
	</g>
	<rect x="511.51" y="501.64" class="st16" width="33.22" height="3.79"/>
	<path class="st17" d="M523.08,505.91l-4.76-0.65l-0.21-4.8l2.32-2.12c-0.53-0.07-1.07-0.08-1.62,0c-3.33,0.45-5.66,3.52-5.21,6.85
		c0.27,1.98,1.47,3.61,3.1,4.5l1.98,14.52l7.18-0.98l-1.98-14.52c1.33-1.3,2.05-3.19,1.78-5.17l0,0L523.08,505.91z"/>
	<g class="st18">
		<g class="st19">
			<path class="st20" d="M554.81,521.99h-10.07v-26.25h10.07V521.99z"/>
		</g>
		<g class="st19">
			<path class="st20" d="M511.51,521.71h-10.07v-25.97h10.07V521.71z"/>
		</g>
	</g>
	<polygon class="st17" points="536.81,503 538.12,503 536.81,497.23 534.99,497.23 533.66,503 534.99,503 534.99,518.21 
		533.66,518.21 533.66,521.99 538.12,521.99 538.12,518.21 536.81,518.21 	"/>
</g>
<g>
	<g>
		<g>
			<path class="st7" d="M327.36,475.9c0-1.2,0.07-2.18,0.21-2.95c0.14-0.77,0.38-1.37,0.73-1.8c0.35-0.43,0.83-0.73,1.44-0.9
				c0.61-0.17,1.4-0.25,2.38-0.25c0.96,0,1.75,0.08,2.37,0.25s1.1,0.47,1.45,0.9c0.35,0.43,0.59,1.03,0.72,1.8
				c0.13,0.77,0.2,1.75,0.2,2.95c0,1.2-0.07,2.18-0.2,2.94c-0.13,0.76-0.37,1.36-0.72,1.79c-0.35,0.43-0.83,0.73-1.45,0.9
				s-1.41,0.25-2.37,0.25c-0.97,0-1.76-0.08-2.38-0.25c-0.61-0.17-1.09-0.47-1.44-0.9c-0.35-0.43-0.59-1.03-0.73-1.79
				C327.42,478.08,327.36,477.1,327.36,475.9z M329.73,479.89h3.24c0.56,0,0.96-0.09,1.18-0.27c0.22-0.18,0.33-0.5,0.33-0.95v-6.79
				h-3.26c-0.56,0-0.95,0.09-1.17,0.27c-0.22,0.18-0.32,0.5-0.32,0.95V479.89z"/>
			<path class="st7" d="M339.52,481.51v-9h1.04l0.58,0.9c0.47-0.37,0.98-0.65,1.54-0.83c0.56-0.18,1.18-0.27,1.88-0.27
				c0.84,0,1.48,0.14,1.92,0.42c0.44,0.28,0.66,0.69,0.66,1.23v7.54h-2.21v-7.38h-1.85c-0.52,0-0.87,0.07-1.05,0.2
				c-0.19,0.13-0.28,0.37-0.28,0.72v6.46H339.52z"/>
			<path class="st7" d="M350.14,469.61l2.21-0.23v10.19v0.83l1.89,1.31c-0.77,0-1.47-0.04-2.11-0.13c-0.64-0.09-1.3-0.24-2-0.46
				V469.61z M354.7,472.24c0.65,0,1.19,0.07,1.63,0.22c0.44,0.15,0.79,0.41,1.04,0.76c0.26,0.36,0.44,0.85,0.55,1.46
				c0.11,0.61,0.16,1.39,0.16,2.32c0,0.91-0.06,1.67-0.19,2.29s-0.33,1.09-0.61,1.44c-0.28,0.35-0.67,0.6-1.17,0.75
				c-0.5,0.15-1.12,0.23-1.86,0.23c-0.66,0-1.2-0.07-1.63-0.21s-0.76-0.38-1-0.72c-0.24-0.34-0.4-0.82-0.49-1.43
				c-0.09-0.61-0.14-1.39-0.14-2.34c0-0.96,0.05-1.75,0.16-2.37c0.11-0.62,0.3-1.1,0.57-1.46c0.27-0.35,0.65-0.6,1.13-0.74
				C353.34,472.31,353.95,472.24,354.7,472.24z M355.74,474.01h-2.59c-0.3,0-0.51,0.03-0.62,0.09c-0.11,0.06-0.17,0.18-0.17,0.36
				v5.49h2.57c0.31,0,0.52-0.03,0.64-0.08c0.11-0.05,0.17-0.15,0.17-0.3V474.01z"/>
			<path class="st7" d="M364.27,481.71c-0.79,0-1.45-0.08-1.98-0.23c-0.53-0.15-0.95-0.4-1.25-0.76c-0.31-0.35-0.53-0.83-0.67-1.44
				c-0.14-0.61-0.21-1.37-0.21-2.28s0.07-1.67,0.21-2.29c0.14-0.61,0.36-1.09,0.67-1.44c0.31-0.35,0.72-0.6,1.25-0.75
				c0.53-0.15,1.19-0.23,1.98-0.23c0.8,0,1.47,0.07,2,0.22c0.53,0.14,0.95,0.39,1.26,0.75c0.31,0.35,0.53,0.84,0.66,1.45
				s0.19,1.37,0.19,2.29s-0.07,1.67-0.2,2.28c-0.13,0.61-0.35,1.09-0.67,1.44c-0.31,0.35-0.73,0.61-1.26,0.76
				C365.72,481.64,365.06,481.71,364.27,481.71z M362.51,479.95h2.72c0.32,0,0.54-0.03,0.66-0.09c0.11-0.06,0.17-0.18,0.17-0.36
				v-5.42h-2.72c-0.32,0-0.54,0.03-0.66,0.09c-0.11,0.06-0.17,0.18-0.17,0.36V479.95z"/>
			<path class="st7" d="M373.22,481.71c-1.01,0-1.73-0.22-2.18-0.65c-0.44-0.43-0.67-1.15-0.67-2.14c0-0.6,0.07-1.09,0.21-1.47
				c0.14-0.38,0.38-0.67,0.74-0.87c0.35-0.2,0.87-0.34,1.54-0.42c0.67-0.08,1.55-0.12,2.63-0.12h0.88v1.31h-2.56
				c-0.55,0-0.92,0.07-1.12,0.21c-0.19,0.14-0.29,0.4-0.29,0.78v1.75h2.02c0.54,0,0.91-0.07,1.11-0.21c0.2-0.14,0.3-0.39,0.3-0.75
				v-4.95c-0.38-0.12-0.92-0.18-1.62-0.18c-0.48,0-0.98,0.04-1.51,0.11c-0.53,0.07-1.07,0.19-1.64,0.34l-0.29-1.58
				c0.34-0.12,0.71-0.22,1.12-0.31s0.85-0.15,1.31-0.19c0.46-0.04,0.9-0.06,1.33-0.06c0.85,0,1.53,0.09,2.04,0.26
				c0.51,0.17,0.88,0.46,1.12,0.85c0.23,0.39,0.35,0.91,0.35,1.56v6.53h-1.06l-0.58-0.9C375.54,481.34,374.48,481.71,373.22,481.71z
				"/>
			<path class="st7" d="M382.11,472.51l0.7,1.37c0.5-0.46,0.95-0.81,1.35-1.07c0.4-0.26,0.79-0.45,1.17-0.57l0.2,2.16
				c-0.24,0.06-0.5,0.15-0.78,0.27c-0.28,0.12-0.56,0.25-0.82,0.38s-0.49,0.27-0.67,0.41v6.05h-2.21v-9H382.11z"/>
			<path class="st7" d="M390.26,472.31c0.76,0,1.37,0.07,1.85,0.21c0.48,0.14,0.85,0.38,1.12,0.72c0.27,0.34,0.46,0.82,0.57,1.43
				c0.11,0.61,0.16,1.39,0.16,2.34c0,0.97-0.05,1.77-0.16,2.38c-0.11,0.62-0.3,1.1-0.57,1.45c-0.27,0.35-0.65,0.59-1.12,0.74
				c-0.48,0.14-1.1,0.21-1.85,0.2c-0.66-0.01-1.21-0.09-1.65-0.23c-0.44-0.14-0.78-0.4-1.04-0.76c-0.25-0.36-0.43-0.85-0.54-1.46
				c-0.11-0.61-0.16-1.39-0.16-2.32c0-0.91,0.05-1.67,0.16-2.29c0.11-0.61,0.29-1.09,0.55-1.45c0.26-0.35,0.61-0.61,1.04-0.76
				C389.07,472.37,389.62,472.3,390.26,472.31z M392.6,474.08h-2.57c-0.31,0-0.52,0.03-0.64,0.09c-0.11,0.06-0.17,0.18-0.17,0.36
				v5.49h2.59c0.31,0,0.52-0.03,0.63-0.09c0.11-0.06,0.16-0.18,0.16-0.36V474.08z M394.82,469.38v12.13h-1.04l-1.17-1.94v-9.95
				L394.82,469.38z"/>
			<path class="st7" d="M399.03,471.13c-0.5,0-0.85-0.09-1.03-0.26c-0.18-0.17-0.27-0.51-0.27-1c0-0.5,0.09-0.85,0.27-1.03
				s0.52-0.27,1.03-0.27c0.49,0,0.83,0.09,1.01,0.27s0.27,0.52,0.27,1.03c0,0.49-0.09,0.83-0.26,1
				C399.87,471.04,399.53,471.13,399.03,471.13z M397.91,472.71l2.21-0.31v9.11h-2.21V472.71z"/>
			<path class="st7" d="M403.22,481.51v-9h1.04l0.58,0.9c0.47-0.37,0.98-0.65,1.54-0.83c0.56-0.18,1.18-0.27,1.88-0.27
				c0.84,0,1.48,0.14,1.92,0.42c0.44,0.28,0.66,0.69,0.66,1.23v7.54h-2.21v-7.38h-1.85c-0.52,0-0.87,0.07-1.05,0.2
				c-0.19,0.13-0.28,0.37-0.28,0.72v6.46H403.22z"/>
			<path class="st7" d="M416.83,478.9c-0.92,0-1.66-0.11-2.2-0.32c-0.54-0.22-0.93-0.56-1.17-1.04c-0.24-0.48-0.36-1.13-0.36-1.96
				c0-0.82,0.12-1.47,0.36-1.95c0.24-0.49,0.63-0.84,1.17-1.05s1.27-0.32,2.2-0.32c0.91,0,1.64,0.11,2.19,0.32s0.94,0.57,1.18,1.05
				c0.24,0.49,0.36,1.14,0.36,1.95c0,0.83-0.12,1.49-0.36,1.97c-0.24,0.49-0.63,0.83-1.17,1.04S417.76,478.9,416.83,478.9z
				 M420.67,482.14c0,0.58-0.12,1.04-0.37,1.39c-0.25,0.35-0.64,0.6-1.18,0.76c-0.54,0.16-1.26,0.23-2.16,0.23
				c-0.67,0-1.33-0.05-1.97-0.14c-0.64-0.1-1.21-0.23-1.72-0.41l0.27-1.62c0.6,0.16,1.13,0.27,1.59,0.34s0.93,0.11,1.41,0.11
				c0.43,0,0.82-0.02,1.16-0.04c0.34-0.03,0.67-0.08,0.98-0.14v-1.19c-1.2-0.07-2.05-0.17-2.56-0.29c-0.51-0.12-0.77-0.28-0.77-0.49
				l0.58-2.07h1.42l-0.09,1.4c0.7,0.08,1.27,0.18,1.72,0.28c0.45,0.1,0.79,0.23,1.04,0.39c0.24,0.16,0.41,0.35,0.5,0.59
				C420.62,481.48,420.67,481.78,420.67,482.14z M415.27,477.57h1.98c0.43,0,0.73-0.07,0.9-0.22c0.17-0.14,0.25-0.41,0.25-0.79
				v-2.99h-1.98c-0.43,0-0.73,0.07-0.9,0.22c-0.17,0.14-0.25,0.4-0.25,0.77V477.57z M419.86,474.26l-1.24-1.57l1.6-1.22l1.08,1.06
				L419.86,474.26z"/>
		</g>
	</g>
</g>
<g>
	<g>
		<path class="st7" d="M191.59,479.48c0.52,0.14,1.09,0.25,1.72,0.33s1.24,0.12,1.84,0.12c0.3,0,0.59-0.01,0.86-0.02
			c0.28-0.01,0.62-0.04,1.04-0.07v-2.81l-1.69-0.14c-0.78-0.05-1.42-0.14-1.93-0.28c-0.51-0.14-0.91-0.33-1.21-0.58
			s-0.5-0.56-0.63-0.95c-0.13-0.39-0.19-0.87-0.19-1.45c0-0.9,0.12-1.62,0.35-2.14c0.23-0.53,0.62-0.91,1.16-1.14
			s1.26-0.35,2.16-0.35c1.28,0,2.54,0.13,3.78,0.38l-0.29,1.76c-0.55-0.1-1.08-0.17-1.58-0.22c-0.5-0.05-1.04-0.07-1.63-0.07
			c-0.36,0-0.64,0.01-0.85,0.02c-0.21,0.01-0.44,0.04-0.69,0.07v2.83l1.84,0.13c0.95,0.07,1.7,0.22,2.25,0.46s0.95,0.59,1.19,1.07
			c0.24,0.48,0.36,1.12,0.36,1.91c0,0.84-0.14,1.52-0.42,2.03s-0.74,0.88-1.37,1.1s-1.47,0.33-2.51,0.33
			c-0.68,0-1.34-0.04-1.98-0.12c-0.64-0.08-1.27-0.2-1.91-0.37L191.59,479.48z"/>
		<path class="st7" d="M201.76,481.51v-11.79l2.18-0.18v3.49c0.38-0.25,0.81-0.44,1.27-0.55c0.46-0.11,0.99-0.17,1.59-0.17
			c0.84,0,1.48,0.14,1.92,0.42c0.44,0.28,0.66,0.69,0.66,1.23v7.54h-2.21v-7.38h-1.73c-0.56,0-0.95,0.07-1.15,0.21
			c-0.2,0.14-0.31,0.39-0.31,0.76v6.41H201.76z"/>
		<path class="st7" d="M214.63,481.71c-1.01,0-1.73-0.22-2.18-0.65c-0.44-0.43-0.67-1.15-0.67-2.14c0-0.6,0.07-1.09,0.21-1.47
			c0.14-0.38,0.38-0.67,0.74-0.87c0.35-0.2,0.87-0.34,1.54-0.42c0.67-0.08,1.55-0.12,2.63-0.12h0.88v1.31h-2.56
			c-0.55,0-0.92,0.07-1.12,0.21c-0.19,0.14-0.29,0.4-0.29,0.78v1.75h2.02c0.54,0,0.91-0.07,1.11-0.21c0.2-0.14,0.3-0.39,0.3-0.75
			v-4.95c-0.38-0.12-0.92-0.18-1.62-0.18c-0.48,0-0.98,0.04-1.51,0.11c-0.53,0.07-1.07,0.19-1.64,0.34l-0.29-1.58
			c0.34-0.12,0.71-0.22,1.12-0.31s0.85-0.15,1.31-0.19c0.46-0.04,0.9-0.06,1.33-0.06c0.85,0,1.53,0.09,2.04,0.26
			c0.51,0.17,0.88,0.46,1.12,0.85c0.23,0.39,0.35,0.91,0.35,1.56v6.53h-1.06l-0.58-0.9C216.95,481.34,215.89,481.71,214.63,481.71z"
			/>
		<path class="st7" d="M223.52,472.51l0.7,1.37c0.5-0.46,0.95-0.81,1.35-1.07c0.4-0.26,0.79-0.45,1.17-0.57l0.2,2.16
			c-0.24,0.06-0.5,0.15-0.78,0.27c-0.28,0.12-0.56,0.25-0.82,0.38c-0.26,0.13-0.49,0.27-0.67,0.41v6.05h-2.21v-9H223.52z"/>
		<path class="st7" d="M229.91,471.13c-0.5,0-0.85-0.09-1.03-0.26s-0.27-0.51-0.27-1c0-0.5,0.09-0.85,0.27-1.03s0.52-0.27,1.03-0.27
			c0.49,0,0.83,0.09,1.01,0.27s0.27,0.52,0.27,1.03c0,0.49-0.09,0.83-0.26,1S230.41,471.13,229.91,471.13z M228.79,472.71l2.21-0.31
			v9.11h-2.21V472.71z"/>
		<path class="st7" d="M234.1,481.51v-9h1.04l0.58,0.9c0.47-0.37,0.98-0.65,1.54-0.83c0.56-0.18,1.18-0.27,1.88-0.27
			c0.84,0,1.48,0.14,1.92,0.42c0.44,0.28,0.66,0.69,0.66,1.23v7.54h-2.21v-7.38h-1.85c-0.52,0-0.87,0.07-1.05,0.2
			c-0.19,0.13-0.28,0.37-0.28,0.72v6.46H234.1z"/>
		<path class="st7" d="M247.71,478.9c-0.92,0-1.66-0.11-2.2-0.32s-0.93-0.56-1.17-1.04c-0.24-0.48-0.36-1.13-0.36-1.96
			c0-0.82,0.12-1.47,0.36-1.95s0.63-0.84,1.17-1.05c0.54-0.22,1.27-0.32,2.2-0.32c0.91,0,1.64,0.11,2.19,0.32
			c0.55,0.21,0.94,0.57,1.18,1.05c0.24,0.49,0.36,1.14,0.36,1.95c0,0.83-0.12,1.48-0.36,1.97c-0.24,0.49-0.63,0.83-1.17,1.04
			C249.37,478.8,248.64,478.9,247.71,478.9z M251.55,482.14c0,0.58-0.12,1.04-0.37,1.38c-0.25,0.35-0.64,0.6-1.18,0.76
			c-0.54,0.15-1.26,0.23-2.16,0.23c-0.67,0-1.33-0.05-1.97-0.14c-0.64-0.1-1.21-0.23-1.72-0.41l0.27-1.62
			c0.6,0.16,1.13,0.27,1.59,0.34s0.93,0.11,1.41,0.11c0.43,0,0.82-0.02,1.16-0.04c0.34-0.03,0.67-0.08,0.98-0.14v-1.19
			c-1.2-0.07-2.05-0.17-2.56-0.29c-0.51-0.12-0.77-0.28-0.77-0.49l0.58-2.07h1.42l-0.09,1.4c0.7,0.08,1.27,0.18,1.72,0.28
			c0.45,0.1,0.79,0.23,1.04,0.39s0.41,0.35,0.5,0.59S251.55,481.78,251.55,482.14z M246.15,477.57h1.98c0.43,0,0.73-0.07,0.9-0.22
			c0.17-0.14,0.25-0.41,0.25-0.79v-2.99h-1.98c-0.43,0-0.73,0.07-0.9,0.22c-0.17,0.14-0.25,0.4-0.25,0.77V477.57z M250.74,474.26
			l-1.24-1.57l1.6-1.22l1.08,1.06L250.74,474.26z"/>
	</g>
</g>
<g>
	<path class="st21" d="M232.72,523.31h-29.9l11.54-14.87h38.26v-3.81h-40.13L198,523.31h-9.86v3.81h44.58V523.31z"/>
	<circle class="st22" cx="184.74" cy="525.01" r="3.91"/>
	<circle class="st22" cx="235.42" cy="525.01" r="3.91"/>
	<circle class="st22" cx="255.42" cy="506.38" r="3.91"/>
	<path class="st21" d="M232.72,523.31h-29.9l11.54-14.87h38.26v-3.81h-40.13L198,523.31h-9.86v3.81h44.58V523.31z"/>
	<circle class="st22" cx="184.74" cy="525.01" r="3.91"/>
	<circle class="st22" cx="235.42" cy="525.01" r="3.91"/>
	<circle class="st22" cx="255.42" cy="506.38" r="3.91"/>
</g>
<rect x="71.61" y="141.2" class="st3" width="67.26" height="24.34"/>
<text transform="matrix(1 0 0 1 71.606 153.9749)" class="st4 st5">Colours:</text>
<rect x="182.83" y="125.76" class="st1" width="39.82" height="39.82"/>
<rect x="491.3" y="125.76" width="39.82" height="39.82"/>
<rect x="285.66" y="125.76" class="st23" width="39.82" height="39.82"/>
<rect x="45.07" y="108.38" class="st6" width="521.86" height="89.96"/>
<rect x="388.48" y="125.76" class="st7" width="39.82" height="39.82"/>
<g>
	<rect x="304.67" y="306.48" class="st3" width="267.45" height="55.51"/>
	<text transform="matrix(1 0 0 1 304.6649 319.2564)"><tspan x="0" y="0" class="st4 st5">Logo </tspan><tspan x="0" y="16" class="st4 st24">(Must always be on a non-white background to </tspan><tspan x="0" y="32" class="st4 st24">present the white outline. Can also be on #E8AD35.)</tspan></text>
</g>
<g>
	<rect x="164.3" y="169.57" class="st3" width="72.91" height="23.51"/>
	<text transform="matrix(1 0 0 1 164.3027 182.3507)" class="st4 st5">#E8AD35</text>
	<g>
		<rect x="272.56" y="169.57" class="st3" width="64.83" height="15.94"/>
		<text transform="matrix(1 0 0 1 272.5595 182.3507)" class="st4 st5">#F0CF97</text>
	</g>
	<g>
		<rect x="374.23" y="169.57" class="st3" width="72.91" height="15.94"/>
		<text transform="matrix(1 0 0 1 374.2312 182.3507)" class="st4 st5">#AA7C2C</text>
	</g>
	<g>
		<rect x="476.83" y="169.57" class="st3" width="68.76" height="15.94"/>
		<text transform="matrix(1 0 0 1 476.8301 182.3507)" class="st4 st5">#000000</text>
	</g>
</g>
<rect x="291.13" y="293.65" class="st6" width="278.98" height="74.81"/>
<g>
	<rect x="380.26" y="611.89" class="st3" width="214.94" height="24.58"/>
	<text transform="matrix(1 0 0 1 380.2595 620.4111)" class="st4 st24">Changa /Medium/  36 pt / #E8AD35</text>
</g>
<rect x="366.73" y="596.06" class="st6" width="203.59" height="40.66"/>
<g>
	<rect x="380.26" y="659.55" class="st3" width="214.94" height="24.58"/>
	<text transform="matrix(1 0 0 1 380.2595 668.0731)" class="st4 st24">Changa / Medium/ 18 pt / #AA7C2C</text>
</g>
<rect x="366.73" y="644.72" class="st6" width="203.59" height="40.66"/>
<g>
	<rect x="380.26" y="705.85" class="st3" width="214.94" height="24.58"/>
	<text transform="matrix(1 0 0 1 380.2595 714.3735)" class="st4 st24">Roboto/ Regular/ 14 pt / #AA7C2C</text>
</g>
<rect x="366.73" y="691.02" class="st6" width="203.59" height="40.66"/>
<line class="st25" x1="359.85" y1="616.39" x2="214.15" y2="624.18"/>
<line class="st25" x1="358.98" y1="665.05" x2="235.51" y2="653.26"/>
<line class="st25" x1="360.25" y1="705.85" x2="318.8" y2="705.85"/>
<g>
	<path class="st0" d="M345.41,513.8c-1.56,0-2.83-1.27-2.83-2.83V500.4c0-1.56,1.27-2.83,2.83-2.83h20.8c1.56,0,2.83,1.27,2.83,2.83
		v5.7c0,0.75,0.25,1.49,0.71,2.09l4.32,5.61H345.41z"/>
	<g>
		<g>
			<path class="st8" d="M375.66,516.34h-30.25c-2.96,0-5.37-2.41-5.37-5.37V500.4c0-2.96,2.41-5.37,5.37-5.37h20.8
				c2.96,0,5.37,2.41,5.37,5.37v5.7c0,0.19,0.06,0.38,0.18,0.54l5.29,6.86c0.41,0.54,0.48,1.25,0.19,1.86
				C376.94,515.96,376.33,516.34,375.66,516.34z M345.41,497.57c-1.56,0-2.83,1.27-2.83,2.83v10.57c0,1.56,1.27,2.83,2.83,2.83
				h28.66l-4.32-5.61c-0.46-0.6-0.71-1.34-0.71-2.09v-5.7c0-1.56-1.27-2.83-2.83-2.83H345.41z"/>
		</g>
		<g class="st19">
			<g>
				<rect x="346.78" y="504.01" class="st8" width="3.35" height="3.35"/>
			</g>
			<g>
				<rect x="354.11" y="504.01" class="st8" width="3.35" height="3.35"/>
			</g>
			<g>
				<rect x="361.53" y="504.01" class="st8" width="3.35" height="3.35"/>
			</g>
		</g>
		<g>
			<path class="st8" d="M404.83,540.58h-30.25c-0.68,0-1.28-0.38-1.58-0.99c-0.3-0.61-0.23-1.32,0.19-1.86l5.29-6.86
				c0.12-0.15,0.18-0.34,0.18-0.54v-5.7c0-2.96,2.41-5.37,5.37-5.37h20.8c2.96,0,5.37,2.41,5.37,5.37v10.57
				C410.21,538.17,407.8,540.58,404.83,540.58z"/>
		</g>
		<g class="st26">
			<g>
				
					<rect x="400.12" y="528.25" transform="matrix(-1 -4.456403e-11 4.456403e-11 -1 803.5823 1059.8469)" class="st0" width="3.35" height="3.35"/>
			</g>
			<g>
				
					<rect x="392.79" y="528.25" transform="matrix(-1 -4.782498e-11 4.782498e-11 -1 788.9216 1059.8469)" class="st0" width="3.35" height="3.35"/>
			</g>
			<g>
				
					<rect x="385.36" y="528.25" transform="matrix(-1 -4.456403e-11 4.456403e-11 -1 774.0723 1059.8469)" class="st0" width="3.35" height="3.35"/>
			</g>
		</g>
		<g>
			<path class="st8" d="M375.66,516.34h-30.25c-2.96,0-5.37-2.41-5.37-5.37V500.4c0-2.96,2.41-5.37,5.37-5.37h20.8
				c2.96,0,5.37,2.41,5.37,5.37v5.7c0,0.19,0.06,0.38,0.18,0.54l5.29,6.86c0.41,0.54,0.48,1.25,0.19,1.86
				C376.94,515.96,376.33,516.34,375.66,516.34z M345.41,497.57c-1.56,0-2.83,1.27-2.83,2.83v10.57c0,1.56,1.27,2.83,2.83,2.83
				h28.66l-4.32-5.61c-0.46-0.6-0.71-1.34-0.71-2.09v-5.7c0-1.56-1.27-2.83-2.83-2.83H345.41z"/>
		</g>
		<g class="st19">
			<g>
				<rect x="346.78" y="504.01" class="st8" width="3.35" height="3.35"/>
			</g>
			<g>
				<rect x="354.11" y="504.01" class="st8" width="3.35" height="3.35"/>
			</g>
			<g>
				<rect x="361.53" y="504.01" class="st8" width="3.35" height="3.35"/>
			</g>
		</g>
		<g>
			<path class="st8" d="M404.83,540.58h-30.25c-0.68,0-1.28-0.38-1.58-0.99c-0.3-0.61-0.23-1.32,0.19-1.86l5.29-6.86
				c0.12-0.15,0.18-0.34,0.18-0.54v-5.7c0-2.96,2.41-5.37,5.37-5.37h20.8c2.96,0,5.37,2.41,5.37,5.37v10.57
				C410.21,538.17,407.8,540.58,404.83,540.58z"/>
		</g>
		<g class="st26">
			<g>
				
					<rect x="400.12" y="528.25" transform="matrix(-1 -4.456403e-11 4.456403e-11 -1 803.5823 1059.8469)" class="st0" width="3.35" height="3.35"/>
			</g>
			<g>
				
					<rect x="392.79" y="528.25" transform="matrix(-1 -4.782498e-11 4.782498e-11 -1 788.9216 1059.8469)" class="st0" width="3.35" height="3.35"/>
			</g>
			<g>
				
					<rect x="385.36" y="528.25" transform="matrix(-1 -4.456403e-11 4.456403e-11 -1 774.0723 1059.8469)" class="st0" width="3.35" height="3.35"/>
			</g>
		</g>
	</g>
</g>
</svg>
