<?xml version="1.0" encoding="UTF-8" standalone="no"?>
<svg
   xmlns:dc="http://purl.org/dc/elements/1.1/"
   xmlns:cc="http://creativecommons.org/ns#"
   xmlns:rdf="http://www.w3.org/1999/02/22-rdf-syntax-ns#"
   xmlns:svg="http://www.w3.org/2000/svg"
   xmlns="http://www.w3.org/2000/svg"
   xmlns:sodipodi="http://sodipodi.sourceforge.net/DTD/sodipodi-0.dtd"
   xmlns:inkscape="http://www.inkscape.org/namespaces/inkscape"
   version="1.1"
   id="Layer_1"
   x="0px"
   y="0px"
   viewBox="0 0 70.160034 45.549999"
   xml:space="preserve"
   sodipodi:docname="speech.svg"
   inkscape:version="1.0.1 (3bc2e813f5, 2020-09-07, custom)"
   width="70.160034"
   height="45.549999"><metadata
   id="metadata523"><rdf:RDF><cc:Work
       rdf:about=""><dc:format>image/svg+xml</dc:format><dc:type
         rdf:resource="http://purl.org/dc/dcmitype/StillImage" /><dc:title></dc:title></cc:Work></rdf:RDF></metadata><defs
   id="defs521">
	
	
	
	
	
	
	
	
	
	

		
	
		
		
	
			
		
			
		
	
	

		
		
		
		
		
		
		
		
	
			
		
	
	
	
	
	
	
	
	

	
	
	
	
	
	
	
	
	
	
	

		
		
		
	
			
			
		
			
		
			
			
			
		
				
			</defs><sodipodi:namedview
   pagecolor="#ffffff"
   bordercolor="#666666"
   borderopacity="1"
   objecttolerance="10"
   gridtolerance="10"
   guidetolerance="10"
   inkscape:pageopacity="0"
   inkscape:pageshadow="2"
   inkscape:window-width="1920"
   inkscape:window-height="996"
   id="namedview519"
   showgrid="false"
   inkscape:zoom="1.8101934"
   inkscape:cx="-50.706561"
   inkscape:cy="76.67989"
   inkscape:window-x="1920"
   inkscape:window-y="0"
   inkscape:window-maximized="1"
   inkscape:current-layer="Layer_1"
   fit-margin-top="0"
   fit-margin-left="0"
   fit-margin-right="0"
   fit-margin-bottom="0"
   inkscape:document-rotation="0" />
<style
   type="text/css"
   id="style2">
	.st0{fill:#FFFFFF;}
	.st1{fill:#E8AD35;}
	.st2{fill:#010101;stroke:#F9F9FA;stroke-width:4;stroke-miterlimit:10;}
	.st3{fill:none;}
	.st4{font-family:'MyriadPro-Regular';}
	.st5{font-size:18px;}
	.st6{fill:none;stroke:#000000;stroke-width:0.5;stroke-miterlimit:10;}
	.st7{fill:#AA7C2C;}
	.st8{fill:#E8AD36;}
	.st9{fill:#010101;}
	.st10{font-family:'Roboto-Regular';}
	.st11{font-size:14px;}
	.st12{opacity:0.6;fill:#E8C178;}
	.st13{fill:none;stroke:#E8AD36;stroke-width:4;stroke-miterlimit:10;}
	.st14{fill:none;stroke:#E8AD36;stroke-width:3;stroke-linecap:round;stroke-miterlimit:10;}
	.st15{fill:none;stroke:#E8AD36;stroke-width:4;stroke-linecap:round;stroke-miterlimit:10;}
	.st16{opacity:0.4;fill:#E8AD36;}
	.st17{opacity:0.9;fill:#E8AD36;}
	.st18{opacity:0.72;}
	.st19{opacity:0.7;}
	.st20{fill:#E8C178;}
	.st21{opacity:0.6;fill:#E8AD36;}
	.st22{fill:none;stroke:#E8AD36;stroke-width:3;stroke-miterlimit:10;}
	.st23{fill:#F0CF97;}
	.st24{font-size:12px;}
	.st25{fill:none;stroke:#000000;stroke-miterlimit:10;}
	.st26{opacity:0.8;}
</style>





































<path
   class="st0"
   d="M 5.37,18.77 C 3.81,18.77 2.54,17.5 2.54,15.94 V 5.37 c 0,-1.56 1.27,-2.83 2.83,-2.83 h 20.8 c 1.56,0 2.83,1.27 2.83,2.83 v 5.7 c 0,0.75 0.25,1.49 0.71,2.09 l 4.32,5.61 z"
   id="path440"
   style="fill:#bdbdbd;fill-opacity:1" /><g
   id="g444"
   transform="translate(-340.04,-495.03)">
			<path
   class="st8"
   d="m 375.66,516.34 h -30.25 c -2.96,0 -5.37,-2.41 -5.37,-5.37 V 500.4 c 0,-2.96 2.41,-5.37 5.37,-5.37 h 20.8 c 2.96,0 5.37,2.41 5.37,5.37 v 5.7 c 0,0.19 0.06,0.38 0.18,0.54 l 5.29,6.86 c 0.41,0.54 0.48,1.25 0.19,1.86 -0.3,0.6 -0.91,0.98 -1.58,0.98 z m -30.25,-18.77 c -1.56,0 -2.83,1.27 -2.83,2.83 v 10.57 c 0,1.56 1.27,2.83 2.83,2.83 h 28.66 l -4.32,-5.61 c -0.46,-0.6 -0.71,-1.34 -0.71,-2.09 v -5.7 c 0,-1.56 -1.27,-2.83 -2.83,-2.83 z"
   id="path442" />
		</g><rect
   x="21.490002"
   y="8.98001"
   class="st8"
   width="3.3499999"
   height="3.3499999"
   id="rect490"
   style="opacity:0.7;fill:#ffffff;fill-opacity:1;stroke:#ffffff;stroke-opacity:1" /><g
   id="g462"
   transform="translate(-340.04,-495.03)">
			<path
   class="st8"
   d="m 404.83,540.58 h -30.25 c -0.68,0 -1.28,-0.38 -1.58,-0.99 -0.3,-0.61 -0.23,-1.32 0.19,-1.86 l 5.29,-6.86 c 0.12,-0.15 0.18,-0.34 0.18,-0.54 v -5.7 c 0,-2.96 2.41,-5.37 5.37,-5.37 h 20.8 c 2.96,0 5.37,2.41 5.37,5.37 v 10.57 c 0.01,2.97 -2.4,5.38 -5.37,5.38 z"
   id="path460" />
		</g><g
   class="st26"
   id="g476"
   transform="translate(-340.04,-495.03)">
			<g
   id="g466">
				
					<rect
   x="400.12"
   y="528.25"
   transform="rotate(180,401.79115,529.92345)"
   class="st0"
   width="3.3499999"
   height="3.3499999"
   id="rect464" />
			</g>
			<g
   id="g470">
				
					<rect
   x="392.79001"
   y="528.25"
   transform="rotate(180,394.4608,529.92345)"
   class="st0"
   width="3.3499999"
   height="3.3499999"
   id="rect468" />
			</g>
			<g
   id="g474">
				
					<rect
   x="385.35999"
   y="528.25"
   transform="rotate(180,387.03615,529.92345)"
   class="st0"
   width="3.3499999"
   height="3.3499999"
   id="rect472" />
			</g>
		</g><g
   id="g480"
   transform="translate(-340.04,-495.03)"
   style="fill:#ffffff;fill-opacity:1">
			<path
   class="st8"
   d="m 375.66,516.34 h -30.25 c -2.96,0 -5.37,-2.41 -5.37,-5.37 V 500.4 c 0,-2.96 2.41,-5.37 5.37,-5.37 h 20.8 c 2.96,0 5.37,2.41 5.37,5.37 v 5.7 c 0,0.19 0.06,0.38 0.18,0.54 l 5.29,6.86 c 0.41,0.54 0.48,1.25 0.19,1.86 -0.3,0.6 -0.91,0.98 -1.58,0.98 z m -30.25,-18.77 c -1.56,0 -2.83,1.27 -2.83,2.83 v 10.57 c 0,1.56 1.27,2.83 2.83,2.83 h 28.66 l -4.32,-5.61 c -0.46,-0.6 -0.71,-1.34 -0.71,-2.09 v -5.7 c 0,-1.56 -1.27,-2.83 -2.83,-2.83 z"
   id="path478"
   style="fill:#ffffff;fill-opacity:1" />
		</g><g
   id="g484"
   style="opacity:0.7;fill:#ffffff;fill-opacity:1;stroke:#ffffff;stroke-opacity:1"
   transform="translate(-340.04,-495.03)">
				<rect
   x="346.78"
   y="504.01001"
   class="st8"
   width="3.3499999"
   height="3.3499999"
   id="rect482"
   style="fill:#ffffff;fill-opacity:1;stroke:#ffffff;stroke-opacity:1" />
			</g><g
   id="g488"
   style="opacity:0.7;fill:#ffffff;fill-opacity:1;stroke:#ffffff;stroke-opacity:1"
   transform="translate(-340.04,-495.03)">
				<rect
   x="354.10999"
   y="504.01001"
   class="st8"
   width="3.3499999"
   height="3.3499999"
   id="rect486"
   style="fill:#ffffff;fill-opacity:1;stroke:#ffffff;stroke-opacity:1" />
			</g><path
   class="st8"
   d="M 64.79,45.55 H 34.54 c -0.68,0 -1.28,-0.38 -1.58,-0.99 -0.3,-0.61 -0.23,-1.32 0.19,-1.86 l 5.29,-6.86 c 0.12,-0.15 0.18,-0.34 0.18,-0.54 v -5.7 c 0,-2.96 2.41,-5.37 5.37,-5.37 h 20.8 c 2.96,0 5.37,2.41 5.37,5.37 v 10.57 c 0.01,2.97 -2.4,5.38 -5.37,5.38 z"
   id="path496"
   style="fill:#ffffff;fill-opacity:1" /><g
   class="st26"
   id="g512"
   transform="translate(-340.04,-495.03)"
   style="fill:#adadad;fill-opacity:1">
			<g
   id="g502"
   style="fill:#adadad;fill-opacity:1">
				
					<rect
   x="400.12"
   y="528.25"
   transform="rotate(180,401.79115,529.92345)"
   class="st0"
   width="3.3499999"
   height="3.3499999"
   id="rect500"
   style="fill:#adadad;fill-opacity:1" />
			</g>
			<g
   id="g506"
   style="fill:#adadad;fill-opacity:1">
				
					<rect
   x="392.79001"
   y="528.25"
   transform="rotate(180,394.4608,529.92345)"
   class="st0"
   width="3.3499999"
   height="3.3499999"
   id="rect504"
   style="fill:#adadad;fill-opacity:1" />
			</g>
			<g
   id="g510"
   style="fill:#adadad;fill-opacity:1">
				
					<rect
   x="385.35999"
   y="528.25"
   transform="rotate(180,387.03615,529.92345)"
   class="st0"
   width="3.3499999"
   height="3.3499999"
   id="rect508"
   style="fill:#adadad;fill-opacity:1" />
			</g>
		</g>
</svg>
