<?xml version="1.0" encoding="UTF-8" standalone="no"?>
<svg
   xmlns:dc="http://purl.org/dc/elements/1.1/"
   xmlns:cc="http://creativecommons.org/ns#"
   xmlns:rdf="http://www.w3.org/1999/02/22-rdf-syntax-ns#"
   xmlns:svg="http://www.w3.org/2000/svg"
   xmlns="http://www.w3.org/2000/svg"
   xmlns:sodipodi="http://sodipodi.sourceforge.net/DTD/sodipodi-0.dtd"
   xmlns:inkscape="http://www.inkscape.org/namespaces/inkscape"
   version="1.1"
   id="Layer_1"
   x="0px"
   y="0px"
   viewBox="0 0 57.770447 51.270001"
   xml:space="preserve"
   sodipodi:docname="toolbox.svg"
   inkscape:version="1.0.1 (3bc2e813f5, 2020-09-07, custom)"
   width="57.770447"
   height="51.27"><metadata
   id="metadata523"><rdf:RDF><cc:Work
       rdf:about=""><dc:format>image/svg+xml</dc:format><dc:type
         rdf:resource="http://purl.org/dc/dcmitype/StillImage" /><dc:title></dc:title></cc:Work></rdf:RDF></metadata><defs
   id="defs521">
	
	
	
	
	
	
	
	
	
	

		
	
		
		
	
			
		
			
		
	
	

		
		
		
		
		
		
		
		
	
			
		
	
	
	
	
	
	
	
	

	
	
	
	
	
	
	
	
	
	
	

		
		
		
	
			
			
		
			
		
			
			
			
		
				
			</defs><sodipodi:namedview
   pagecolor="#ffffff"
   bordercolor="#666666"
   borderopacity="1"
   objecttolerance="10"
   gridtolerance="10"
   guidetolerance="10"
   inkscape:pageopacity="0"
   inkscape:pageshadow="2"
   inkscape:window-width="1920"
   inkscape:window-height="1051"
   id="namedview519"
   showgrid="false"
   inkscape:zoom="5.12"
   inkscape:cx="43.406351"
   inkscape:cy="18.922726"
   inkscape:window-x="0"
   inkscape:window-y="0"
   inkscape:window-maximized="1"
   inkscape:current-layer="Layer_1"
   fit-margin-top="0"
   fit-margin-left="0"
   fit-margin-right="0"
   fit-margin-bottom="0" />
<style
   type="text/css"
   id="style2">
	.st0{fill:#FFFFFF;}
	.st1{fill:#E8AD35;}
	.st2{fill:#010101;stroke:#F9F9FA;stroke-width:4;stroke-miterlimit:10;}
	.st3{fill:none;}
	.st4{font-family:'MyriadPro-Regular';}
	.st5{font-size:18px;}
	.st6{fill:none;stroke:#000000;stroke-width:0.5;stroke-miterlimit:10;}
	.st7{fill:#AA7C2C;}
	.st8{fill:#E8AD36;}
	.st9{fill:#010101;}
	.st10{font-family:'Roboto-Regular';}
	.st11{font-size:14px;}
	.st12{opacity:0.6;fill:#E8C178;}
	.st13{fill:none;stroke:#E8AD36;stroke-width:4;stroke-miterlimit:10;}
	.st14{fill:none;stroke:#E8AD36;stroke-width:3;stroke-linecap:round;stroke-miterlimit:10;}
	.st15{fill:none;stroke:#E8AD36;stroke-width:4;stroke-linecap:round;stroke-miterlimit:10;}
	.st16{opacity:0.4;fill:#E8AD36;}
	.st17{opacity:0.9;fill:#E8AD36;}
	.st18{opacity:0.72;}
	.st19{opacity:0.7;}
	.st20{fill:#E8C178;}
	.st21{opacity:0.6;fill:#E8AD36;}
	.st22{fill:none;stroke:#E8AD36;stroke-width:3;stroke-miterlimit:10;}
	.st23{fill:#F0CF97;}
	.st24{font-size:12px;}
	.st25{fill:none;stroke:#000000;stroke-miterlimit:10;}
	.st26{opacity:0.8;}
</style>














<g
   id="g256"
   transform="translate(-498.55955,-495.74)">
		<path
   class="st8"
   d="m 549.09,547.01 c -0.01,0 -0.02,0 -0.03,0 l -43.53,-0.22 c -2,-0.01 -3.83,-0.89 -5.15,-2.46 -1.19,-1.43 -1.84,-3.3 -1.82,-5.26 l 0.15,-17.36 57.62,0.29 -0.15,17.35 c -0.01,0.92 -0.16,1.83 -0.46,2.69 -1.06,3.03 -3.65,4.97 -6.63,4.97 z"
   id="path254" />
	</g><path
   class="st17"
   d="m 24.520448,10.17 -4.76,-0.6500001 -0.21,-4.7999999 2.32,-2.12 c -0.53,-0.07 -1.07,-0.08 -1.62,0 -3.33,0.45 -5.66,3.5199999 -5.21,6.8499999 0.27,1.9800001 1.47,3.6100001 3.1,4.5000001 l 1.98,14.52 7.18,-0.98 -1.98,-14.52 c 1.33,-1.3 2.05,-3.1900001 1.78,-5.1700001 v 0 z"
   id="path280"
   style="fill:#ffffff;fill-opacity:1" /><path
   class="st20"
   d="M 12.950448,25.97 H 2.8804482 V 0 H 12.950448 Z"
   id="path286"
   style="opacity:0.7;fill:#ffffff;fill-opacity:1" /><polygon
   class="st17"
   points="536.81,503 538.12,503 536.81,497.23 534.99,497.23 533.66,503 534.99,503 534.99,518.21 533.66,518.21 533.66,521.99 538.12,521.99 538.12,518.21 536.81,518.21 "
   id="polygon292"
   transform="translate(-498.55955,-495.74)"
   style="fill:#ffffff;fill-opacity:1" /><path
   class="st8"
   d="m 50.530448,51.27 c -0.01,0 -0.02,0 -0.03,0 L 6.9704482,51.05 c -2,-0.01 -3.83,-0.89 -5.15,-2.46 C 0.63044819,47.16 -0.01955181,45.29 4.4819437e-4,43.33 L 0.15044819,25.97 57.770448,26.26 l -0.15,17.35 c -0.01,0.92 -0.16,1.83 -0.46,2.69 -1.06,3.03 -3.65,4.97 -6.63,4.97 z"
   id="path274"
   style="fill:#ffffff;fill-opacity:1" /><path
   class="st20"
   d="m 56.250448,26.25 h -10.07 V 0 h 10.07 z"
   id="path282"
   style="opacity:0.7;fill:#ffffff;fill-opacity:1" />























<rect
   x="12.950453"
   y="5.9000149"
   class="st16"
   width="33.220001"
   height="3.79"
   id="rect278"
   style="fill:#ffffff;fill-opacity:1" /></svg>
