<?xml version="1.0" encoding="UTF-8" standalone="no"?>
<svg
   xmlns:dc="http://purl.org/dc/elements/1.1/"
   xmlns:cc="http://creativecommons.org/ns#"
   xmlns:rdf="http://www.w3.org/1999/02/22-rdf-syntax-ns#"
   xmlns:svg="http://www.w3.org/2000/svg"
   xmlns="http://www.w3.org/2000/svg"
   xmlns:sodipodi="http://sodipodi.sourceforge.net/DTD/sodipodi-0.dtd"
   xmlns:inkscape="http://www.inkscape.org/namespaces/inkscape"
   version="1.1"
   id="Layer_1"
   x="0px"
   y="0px"
   viewBox="0 0 51.999996 59.290012"
   xml:space="preserve"
   sodipodi:docname="tree.svg"
   inkscape:version="1.0.1 (3bc2e813f5, 2020-09-07, custom)"
   width="51.999996"
   height="59.290012"><metadata
   id="metadata523"><rdf:RDF><cc:Work
       rdf:about=""><dc:format>image/svg+xml</dc:format><dc:type
         rdf:resource="http://purl.org/dc/dcmitype/StillImage" /><dc:title></dc:title></cc:Work></rdf:RDF></metadata><defs
   id="defs521">
	
	
	
	
	
	
	
	
	
	

		
	
		
		
	
			
		
			
		
	
	

		
		
		
		
		
		
		
		
	
			
		
	
	
	
	
	
	
	
	

	
	
	
	
	
	
	
	
	
	
	

		
		
		
	
			
			
		
			
		
			
			
			
		
				
			</defs><sodipodi:namedview
   pagecolor="#ffffff"
   bordercolor="#666666"
   borderopacity="1"
   objecttolerance="10"
   gridtolerance="10"
   guidetolerance="10"
   inkscape:pageopacity="0"
   inkscape:pageshadow="2"
   inkscape:window-width="1920"
   inkscape:window-height="996"
   id="namedview519"
   showgrid="false"
   inkscape:zoom="1.28"
   inkscape:cx="40.521083"
   inkscape:cy="92.953833"
   inkscape:window-x="1920"
   inkscape:window-y="0"
   inkscape:window-maximized="1"
   inkscape:current-layer="Layer_1"
   fit-margin-top="0"
   fit-margin-left="0"
   fit-margin-right="0"
   fit-margin-bottom="0"
   inkscape:document-rotation="0" />
<style
   type="text/css"
   id="style2">
	.st0{fill:#FFFFFF;}
	.st1{fill:#E8AD35;}
	.st2{fill:#010101;stroke:#F9F9FA;stroke-width:4;stroke-miterlimit:10;}
	.st3{fill:none;}
	.st4{font-family:'MyriadPro-Regular';}
	.st5{font-size:18px;}
	.st6{fill:none;stroke:#000000;stroke-width:0.5;stroke-miterlimit:10;}
	.st7{fill:#AA7C2C;}
	.st8{fill:#E8AD36;}
	.st9{fill:#010101;}
	.st10{font-family:'Roboto-Regular';}
	.st11{font-size:14px;}
	.st12{opacity:0.6;fill:#E8C178;}
	.st13{fill:none;stroke:#E8AD36;stroke-width:4;stroke-miterlimit:10;}
	.st14{fill:none;stroke:#E8AD36;stroke-width:3;stroke-linecap:round;stroke-miterlimit:10;}
	.st15{fill:none;stroke:#E8AD36;stroke-width:4;stroke-linecap:round;stroke-miterlimit:10;}
	.st16{opacity:0.4;fill:#E8AD36;}
	.st17{opacity:0.9;fill:#E8AD36;}
	.st18{opacity:0.72;}
	.st19{opacity:0.7;}
	.st20{fill:#E8C178;}
	.st21{opacity:0.6;fill:#E8AD36;}
	.st22{fill:none;stroke:#E8AD36;stroke-width:3;stroke-miterlimit:10;}
	.st23{fill:#F0CF97;}
	.st24{font-size:12px;}
	.st25{fill:none;stroke:#000000;stroke-miterlimit:10;}
	.st26{opacity:0.8;}
</style>










<path
   class="st12"
   d="m 45.58,25.570014 c -0.59,-0.73 -1.66,-0.85 -2.39,-0.26 l -14.31,11.46 -0.13,-7.88 3.12,-10.25 10.19,-7.23 -1.97,-2.7700003 -11.14,7.9000003 -1.92,6.29 -4.78,-10.89 -10.93,-5.8100003 -1.6,3 9.89,5.2600003 5.71,12.99 0.04,2.58 -9.34,-6.16 c -0.78,-0.52 -1.84,-0.3 -2.36,0.48 -0.52,0.78 -0.3,1.84 0.48,2.36 l 11.28,7.43 0.38,23.55 c 0.01,0.93 0.77,1.67 1.7,1.67 0.01,0 0.02,0 0.03,0 0.94,-0.01 1.69,-0.79 1.67,-1.73 l -0.26,-16.54 c 0.1,-0.05 0.2,-0.11 0.29,-0.18 l 16.08,-12.88 c 0.73,-0.59 0.85,-1.66 0.27,-2.39 z"
   id="path136"
   style="fill:#ffffff;fill-opacity:1" /><path
   class="st13"
   d="m 27.4,51.940014 c 0,0 1.88,-9.39 9.01,-12.77 7.13,-3.38 12.77,0 12.77,0 0,0 -1.13,5.63 -7.13,9.58 -6.01,3.94 -14.65,3.19 -14.65,3.19 z"
   id="path138"
   style="stroke:#ffffff;stroke-opacity:1" /><path
   class="st13"
   d="m 27.4,51.940014 c 0,0 -1.88,-9.39 -9.01,-12.77 -7.13,-3.38 -12.77,0 -12.77,0 0,0 1.13,5.63 7.13,9.58 6.02,3.94 14.65,3.19 14.65,3.19 z"
   id="path140"
   style="stroke:#ffffff;stroke-opacity:1" /><line
   class="st14"
   x1="28.76"
   y1="51.119995"
   x2="37.829998"
   y2="44.840027"
   id="line142"
   style="stroke:#ffffff;stroke-opacity:1" /><line
   class="st14"
   x1="26.039999"
   y1="51.119995"
   x2="16.51"
   y2="44.359985"
   id="line144"
   style="stroke:#ffffff;stroke-opacity:1" /><circle
   class="st15"
   cx="44.509998"
   cy="8.5700064"
   r="3.72"
   id="circle146"
   style="stroke:#ffffff;stroke-opacity:1" /><circle
   class="st15"
   cx="46.279995"
   cy="23.510008"
   r="3.72"
   id="circle148"
   style="stroke:#ffffff;stroke-opacity:1" /><path
   class="st8"
   d="m 13.93,25.250014 c -1.84,0 -5.51,-0.26 -8.35,-2.13 -3.93,-2.58 -4.71,-6.25 -4.74,-6.41 l -0.12,-0.58 0.5,-0.3 c 0.16,-0.09 3.89,-2.28 8.62,-0.04 4.7,2.23 5.94,8.17 5.99,8.42 l 0.18,0.91 -0.93,0.08 c -0.05,0.02 -0.48,0.05 -1.15,0.05 z m -11.27,-8.26 c 0.37,1.02 1.39,3.13 3.83,4.73 2.47,1.62 5.79,1.85 7.44,1.85 -0.52,-1.63 -1.89,-4.9 -4.8,-6.28 -2.94,-1.38 -5.39,-0.73 -6.47,-0.3 z"
   id="path150"
   style="fill:#ffffff;fill-opacity:1" /><g
   id="g156"
   transform="translate(-52.06,-496.10999)"
   style="fill:#ffffff;fill-opacity:1">
			<path
   class="st8"
   d="m 66.24,520.41 c -0.08,0 -0.17,-0.02 -0.24,-0.08 l -5.85,-4.15 c -0.19,-0.13 -0.23,-0.39 -0.1,-0.58 0.13,-0.19 0.39,-0.23 0.58,-0.1 l 5.85,4.15 c 0.19,0.13 0.23,0.39 0.1,0.58 -0.08,0.11 -0.21,0.18 -0.34,0.18 z"
   id="path154"
   style="fill:#ffffff;fill-opacity:1" />
		</g><g
   id="g160"
   transform="translate(-52.06,-496.10999)"
   style="fill:#ffffff;fill-opacity:1">
				<path
   class="st8"
   d="m 67.41,523.03 c -1.14,1.44 -3.63,4.15 -6.86,5.22 -4.47,1.48 -7.82,-0.19 -7.97,-0.27 l -0.52,-0.27 0.08,-0.58 c 0.02,-0.18 0.63,-4.47 5.32,-6.78 4.67,-2.3 10.09,0.42 10.32,0.54 l 0.83,0.42 -0.51,0.78 c -0.03,0.05 -0.27,0.41 -0.69,0.94 z m -13.47,3.7 c 1.03,0.34 3.32,0.85 6.09,-0.06 2.8,-0.93 5.05,-3.39 6.07,-4.68 -1.61,-0.61 -5.02,-1.56 -7.9,-0.13 -2.92,1.43 -3.93,3.76 -4.26,4.87 z"
   id="path158"
   style="fill:#ffffff;fill-opacity:1" />
			</g><g
   id="g164"
   transform="translate(-52.06,-496.10999)"
   style="fill:#ffffff;fill-opacity:1">
				<path
   class="st8"
   d="m 66.82,522.24 c -0.05,0.07 -0.12,0.12 -0.21,0.14 l -6.88,2.01 c -0.22,0.06 -0.45,-0.06 -0.52,-0.28 -0.06,-0.22 0.06,-0.45 0.28,-0.52 l 6.88,-2.01 c 0.22,-0.06 0.45,0.06 0.52,0.28 0.04,0.14 0.01,0.27 -0.07,0.38 z"
   id="path162"
   style="fill:#ffffff;fill-opacity:1" />
			</g><g
   id="g178"
   transform="translate(-52.06,-496.10999)"
   style="fill:#ffffff;fill-opacity:1">
		<g
   id="g172"
   style="fill:#ffffff;fill-opacity:1">
			<path
   class="st8"
   d="m 80.75,513.34 c -1.52,-1.2 -4.37,-3.82 -5.5,-7.22 -1.56,-4.7 0.2,-8.24 0.28,-8.39 l 0.28,-0.55 0.61,0.08 c 0.19,0.02 4.7,0.67 7.14,5.6 2.42,4.91 -0.44,10.63 -0.56,10.87 l -0.45,0.87 -0.82,-0.54 c -0.05,-0.03 -0.43,-0.29 -0.98,-0.72 z m -3.9,-14.19 c -0.36,1.09 -0.9,3.5 0.07,6.41 0.98,2.95 3.57,5.31 4.93,6.4 0.64,-1.69 1.64,-5.28 0.14,-8.32 -1.52,-3.08 -3.97,-4.14 -5.14,-4.49 z"
   id="path170"
   style="fill:#ffffff;fill-opacity:1" />
		</g>
		<g
   id="g176"
   style="fill:#ffffff;fill-opacity:1">
			<path
   class="st8"
   d="m 81.77,512.67 c -0.07,-0.05 -0.13,-0.12 -0.16,-0.21 l -2.46,-7.14 c -0.08,-0.23 0.04,-0.48 0.27,-0.56 0.23,-0.08 0.48,0.04 0.56,0.27 l 2.46,7.14 c 0.08,0.23 -0.04,0.48 -0.27,0.56 -0.14,0.05 -0.28,0.02 -0.4,-0.06 z"
   id="path174"
   style="fill:#ffffff;fill-opacity:1" />
		</g>
	</g><circle
   class="st15"
   cx="7.8900008"
   cy="5.7200003"
   r="3.72"
   id="circle180"
   style="fill:none;fill-opacity:1;stroke:#ffffff;stroke-opacity:1" /><g
   id="g190"
   transform="translate(-52.06,-496.10999)"
   style="fill:#ffffff;fill-opacity:1">
		<g
   id="g184"
   style="fill:#ffffff;fill-opacity:1">
			<path
   class="st8"
   d="m 93.16,523.62 c -1.16,-0.27 -3.42,-0.97 -4.93,-2.55 -2.09,-2.19 -2.04,-4.61 -2.04,-4.71 l 0.01,-0.38 0.36,-0.12 c 0.11,-0.04 2.77,-0.86 5.41,1.23 2.63,2.08 2.54,5.99 2.53,6.15 l -0.02,0.6 -0.59,-0.08 c -0.03,0 -0.31,-0.04 -0.73,-0.14 z M 87.3,516.8 c 0.09,0.7 0.42,2.17 1.71,3.52 1.31,1.37 3.36,2 4.4,2.24 -0.09,-1.1 -0.48,-3.35 -2.1,-4.63 -1.65,-1.29 -3.28,-1.24 -4.01,-1.13 z"
   id="path182"
   style="fill:#ffffff;fill-opacity:1" />
		</g>
		<g
   id="g188"
   style="fill:#ffffff;fill-opacity:1">
			<path
   class="st8"
   d="m 93.6,522.95 c -0.05,-0.01 -0.1,-0.03 -0.15,-0.07 l -3.3,-3.23 c -0.11,-0.1 -0.11,-0.27 0,-0.38 0.1,-0.11 0.27,-0.11 0.38,0 l 3.3,3.23 c 0.11,0.1 0.11,0.27 0,0.38 -0.06,0.06 -0.15,0.09 -0.23,0.07 z"
   id="path186"
   style="fill:#ffffff;fill-opacity:1" />
		</g>
	</g>



























</svg>
